<svg xmlns="http://www.w3.org/2000/svg" width="40" height="39.998" viewBox="0 0 40 39.998"><g transform="translate(-1241.886 -4338.5)"><path d="M1266.59,4365.788a1.3,1.3,0,0,0-1.727-.092l-2.432,1.962a1.294,1.294,0,0,1-1.646-.018,33.9,33.9,0,0,1-8.041-8.042,1.293,1.293,0,0,1-.018-1.645l1.961-2.432a1.293,1.293,0,0,0-.092-1.727l-4.658-4.657a1.3,1.3,0,0,0-1.747-.076l-5.842,4.907a1.291,1.291,0,0,0-.308,1.6s.785,1.6,1.515,2.831a57.936,57.936,0,0,0,18.43,18.429c1.227.729,2.83,1.516,2.83,1.516a1.3,1.3,0,0,0,1.6-.309l4.907-5.843a1.3,1.3,0,0,0-.075-1.746Z" fill="#00803e"/><path d="M1267.738,4359.542l1.939-.308a10.287,10.287,0,0,0-8.527-8.527l-.308,1.938a8.328,8.328,0,0,1,6.9,6.9Z" fill="#00803e"/><path d="M1275.537,4344.848a22.546,22.546,0,0,0-12.459-6.348l-.305,1.939a20.668,20.668,0,0,1,17.172,17.172l1.941-.306A22.553,22.553,0,0,0,1275.537,4344.848Z" fill="#00803e"/><path d="M1262.113,4344.6l-.3,1.941a14.466,14.466,0,0,1,12.037,12.037l1.94-.306a16.429,16.429,0,0,0-13.673-13.672Z" fill="#00803e"/></g></svg>