<svg xmlns="http://www.w3.org/2000/svg" width="453.283" height="25.56" viewBox="0 0 453.283 25.56"><g transform="translate(-372.735 -4416.939)"><path d="M372.735,4417.509v21h28v-21ZM387.18,4428.6a.7.7,0,0,1-.443.145.689.689,0,0,1-.442-.145l-10.935-8.464h22.75Zm-9.244-3.963,3.8,3.224-6.378,6.275v-11.375Zm5.7,4.831.9.759a3.514,3.514,0,0,0,4.417,0l.893-.757,6.522,6.416H377.11Zm8.1-1.606,6.377-5.1v11.375Z" fill="#00803e"/><path d="M434.9,4430.33c0,4.629-2.574,7.515-6.474,7.515s-6.448-2.808-6.448-7.437,2.6-7.513,6.474-7.513C432.3,4422.9,434.9,4425.7,434.9,4430.33Zm-9.568.026c0,3.3.988,5.123,3.094,5.123s3.12-1.794,3.12-5.123c0-3.276-.988-5.1-3.094-5.1S425.337,4427.08,425.337,4430.356Z"/><path d="M446.475,4428.172c-.312-1.976-1.2-2.886-2.522-2.886-2.106,0-3.2,1.794-3.2,5.07,0,3.3,1.093,5.1,3.2,5.1,1.534,0,2.418-1.015,2.73-2.99l3.042.832a5.539,5.539,0,0,1-5.85,4.55c-4.057,0-6.475-2.782-6.475-7.437s2.5-7.513,6.475-7.513a5.45,5.45,0,0,1,5.772,4.549Z"/><path d="M454.95,4431.059c.026,2.7,1.222,4.5,3.588,4.5,1.482,0,2.522-.832,3.016-2.7l2.965.858c-.885,2.729-2.835,4.134-6.007,4.134-4.264,0-6.76-2.731-6.76-7.41,0-4.655,2.626-7.54,6.474-7.54,3.64,0,6.37,2.651,6.37,7.488v.676Zm6.448-2.159c-.156-2.392-1.17-3.744-3.12-3.744-1.976,0-3.12,1.456-3.276,3.744Z"/><path d="M467.482,4426.794c.728-2.573,2.808-3.926,5.9-3.926,3.693,0,5.538,1.56,5.538,4.733v5.668a37.551,37.551,0,0,0,.235,4.211H476.14c-.1-.624-.156-1.04-.234-1.872a5.348,5.348,0,0,1-4.5,2.21,4.054,4.054,0,0,1-4.394-4.238c0-2.5,1.56-4.107,4.654-4.706a27.711,27.711,0,0,1,4.082-.416v-.806c0-1.794-.753-2.522-2.47-2.522a2.72,2.72,0,0,0-2.73,2.5Zm8.268,3.692a14.94,14.94,0,0,0-3.276.416c-1.534.365-2.34,1.145-2.34,2.418a2.022,2.022,0,0,0,2.288,2.159,3.894,3.894,0,0,0,3.328-2.34Z"/><path d="M486.2,4425.7a5.817,5.817,0,0,1,4.68-2.807c2.367,0,4.082,1.533,4.082,4.29v10.295H491.61V4428.1c0-1.639-.7-2.393-1.976-2.393a4.375,4.375,0,0,0-3.328,2.418v9.36H483.03v-14.274H486.2Z"/><path d="M506.378,4430.877h-7.592v-2.549h7.592Z"/><path d="M517.48,4427.418a2.554,2.554,0,0,0-2.548-2.288c-1.4,0-2.236.677-2.236,1.534,0,1.118.468,1.586,2.548,2.133l1.2.311c3.25.859,4.42,2.029,4.42,4.342,0,2.549-1.9,4.4-5.773,4.4-3.015,0-5.044-1.067-5.954-3.563l3.042-1.065a3.012,3.012,0,0,0,2.991,2.391c1.872,0,2.6-.8,2.6-1.845,0-1.17-.494-1.483-2.756-2.132l-1.2-.338c-3.094-.832-4.186-1.95-4.186-4.343,0-2.288,1.873-4.055,5.357-4.055,2.99,0,4.81,1.326,5.59,3.639Z"/><path d="M527.412,4425.624a5.8,5.8,0,0,1,4.576-2.7,3.9,3.9,0,0,1,4.082,4.265v10.295h-3.354v-9.36c0-1.664-.7-2.391-1.976-2.391a4.409,4.409,0,0,0-3.328,2.443v9.308h-3.277v-20.541h3.277Z"/><path d="M543.583,4420.658h-3.536V4417.3h3.536Zm-.129,16.822h-3.277v-14.274h3.277Z"/><path d="M559.73,4423.856a3.248,3.248,0,0,0-2.548.728,4.145,4.145,0,0,1,1.17,2.86c0,2.964-2.314,4.706-5.617,4.706a7.344,7.344,0,0,1-1.846-.234c-.624.313-1.04.755-1.04,1.248,0,.6.339.885,1.977,1.041l3.223.26c3.744.363,4.941,1.611,4.941,3.691,0,2.5-2.522,4.343-7.177,4.343-4.134,0-6.422-1.4-6.422-3.458,0-1.248,1.04-2.21,2.626-2.782-1.3-.286-2-1.015-2-2.054,0-1.118.651-2,2.184-2.965a4.255,4.255,0,0,1-2.028-3.769c0-2.757,2.314-4.576,5.59-4.576a6.644,6.644,0,0,1,3.043.675,4.077,4.077,0,0,1,4.134-2.34Zm-8.736,12.792c-1.223.391-1.925,1.067-1.925,1.951,0,1.248,1.56,1.976,3.927,1.976,2.782,0,4.16-.885,4.16-1.9,0-.962-.468-1.43-2.626-1.664Zm-.832-9.23a2.607,2.607,0,1,0,5.2.026,2.6,2.6,0,1,0-5.2-.026Z"/><path d="M562.329,4426.794c.728-2.573,2.808-3.926,5.9-3.926,3.692,0,5.539,1.56,5.539,4.733v5.668a38.1,38.1,0,0,0,.233,4.211h-3.015c-.1-.624-.156-1.04-.235-1.872a5.345,5.345,0,0,1-4.5,2.21,4.054,4.054,0,0,1-4.394-4.238c0-2.5,1.56-4.107,4.654-4.706a27.725,27.725,0,0,1,4.083-.416v-.806c0-1.794-.755-2.522-2.471-2.522a2.72,2.72,0,0,0-2.73,2.5Zm8.269,3.692a14.942,14.942,0,0,0-3.277.416c-1.533.365-2.34,1.145-2.34,2.418a2.023,2.023,0,0,0,2.289,2.159,3.894,3.894,0,0,0,3.328-2.34Z"/><path d="M591.034,4428.874a5.269,5.269,0,0,0-.39,1.769.95.95,0,0,0,.961.91c2.055,0,4.629-2.366,4.629-6.162,0-4.369-3.458-7.281-8.242-7.281a9.43,9.43,0,0,0-9.621,9.724c0,5.278,3.692,8.814,9.048,8.814,3.927,0,6.5-1.351,8.347-4l.962.753c-2.132,2.887-5.019,4.447-9.309,4.447-6.006,0-10.348-4.134-10.348-10.011a10.825,10.825,0,0,1,10.894-10.9c5.461,0,9.543,3.615,9.543,8.477,0,4.16-3.12,7.463-6.37,7.463-1.69,0-2.5-.677-2.575-2.028a3.946,3.946,0,0,1-3.354,1.975,3.349,3.349,0,0,1-3.64-3.639c0-3.9,2.99-7.411,6.553-7.411a2.1,2.1,0,0,1,2.288,1.872l.52-1.377h2.47Zm-1.118-3.691c0-1.431-.6-2.133-1.613-2.133-1.9,0-4.03,3.173-4.03,6.318,0,1.326.572,2.107,1.508,2.107,1.222,0,2.262-.911,2.886-2.731Z"/><path d="M612.977,4430.33c0,4.629-2.574,7.515-6.474,7.515s-6.448-2.808-6.448-7.437,2.6-7.513,6.474-7.513C610.377,4422.9,612.977,4425.7,612.977,4430.33Zm-9.568.026c0,3.3.988,5.123,3.094,5.123s3.12-1.794,3.12-5.123c0-3.276-.988-5.1-3.094-5.1S603.409,4427.08,603.409,4430.356Z"/><path d="M624.546,4428.172c-.312-1.976-1.2-2.886-2.522-2.886-2.106,0-3.2,1.794-3.2,5.07,0,3.3,1.092,5.1,3.2,5.1,1.535,0,2.418-1.015,2.73-2.99l3.042.832a5.538,5.538,0,0,1-5.85,4.55c-4.056,0-6.474-2.782-6.474-7.437s2.5-7.513,6.474-7.513a5.45,5.45,0,0,1,5.773,4.549Z"/><path d="M633.022,4431.059c.026,2.7,1.222,4.5,3.588,4.5,1.482,0,2.522-.832,3.016-2.7l2.964.858c-.884,2.729-2.834,4.134-6.006,4.134-4.264,0-6.76-2.731-6.76-7.41,0-4.655,2.626-7.54,6.474-7.54,3.64,0,6.37,2.651,6.37,7.488v.676Zm6.448-2.159c-.156-2.392-1.17-3.744-3.12-3.744-1.976,0-3.12,1.456-3.276,3.744Z"/><path d="M645.554,4426.794c.728-2.573,2.808-3.926,5.9-3.926,3.692,0,5.538,1.56,5.538,4.733v5.668a37.818,37.818,0,0,0,.234,4.211h-3.016c-.1-.624-.156-1.04-.234-1.872a5.348,5.348,0,0,1-4.5,2.21,4.054,4.054,0,0,1-4.394-4.238c0-2.5,1.56-4.107,4.654-4.706a27.711,27.711,0,0,1,4.082-.416v-.806c0-1.794-.754-2.522-2.47-2.522a2.72,2.72,0,0,0-2.73,2.5Zm8.268,3.692a14.931,14.931,0,0,0-3.276.416c-1.534.365-2.34,1.145-2.34,2.418a2.022,2.022,0,0,0,2.288,2.159,3.894,3.894,0,0,0,3.328-2.34Z"/><path d="M664.274,4425.7a5.817,5.817,0,0,1,4.68-2.807c2.366,0,4.082,1.533,4.082,4.29v10.295h-3.354V4428.1c0-1.639-.7-2.393-1.976-2.393a4.375,4.375,0,0,0-3.328,2.418v9.36H661.1v-14.274h3.172Z"/><path d="M684.45,4430.877h-7.593v-2.549h7.593Z"/><path d="M700.44,4423.856a3.248,3.248,0,0,0-2.548.728,4.145,4.145,0,0,1,1.17,2.86c0,2.964-2.314,4.706-5.617,4.706a7.344,7.344,0,0,1-1.846-.234c-.624.313-1.04.755-1.04,1.248,0,.6.338.885,1.977,1.041l3.223.26c3.744.363,4.941,1.611,4.941,3.691,0,2.5-2.522,4.343-7.177,4.343-4.134,0-6.422-1.4-6.422-3.458,0-1.248,1.04-2.21,2.626-2.782-1.3-.286-2-1.015-2-2.054,0-1.118.65-2,2.184-2.965a4.255,4.255,0,0,1-2.028-3.769c0-2.757,2.314-4.576,5.59-4.576a6.644,6.644,0,0,1,3.043.675,4.077,4.077,0,0,1,4.134-2.34Zm-8.736,12.792c-1.223.391-1.925,1.067-1.925,1.951,0,1.248,1.56,1.976,3.927,1.976,2.782,0,4.16-.885,4.16-1.9,0-.962-.469-1.43-2.626-1.664Zm-.832-9.23a2.607,2.607,0,1,0,5.2.026,2.6,2.6,0,1,0-5.2-.026Z"/><path d="M710.735,4425.962c-1.715,0-3.146,1.118-4.056,3.614v7.9h-3.224v-14.274h3.068v3.511c1.015-2.809,2.5-3.822,4.42-3.822Z"/><path d="M725.711,4430.33c0,4.629-2.574,7.515-6.474,7.515s-6.448-2.808-6.448-7.437,2.6-7.513,6.474-7.513C723.111,4422.9,725.711,4425.7,725.711,4430.33Zm-9.568.026c0,3.3.988,5.123,3.094,5.123s3.12-1.794,3.12-5.123c0-3.276-.987-5.1-3.094-5.1S716.143,4427.08,716.143,4430.356Z"/><path d="M740.921,4437.48h-3.172v-2.469a5.459,5.459,0,0,1-4.628,2.834,3.883,3.883,0,0,1-4.134-4.212v-10.427h3.354v9.49c0,1.613.728,2.341,2,2.341a4.2,4.2,0,0,0,3.3-2.444v-9.387h3.276Z"/><path d="M748.279,4425.313a4.732,4.732,0,0,1,4-2.418c3.12,0,5.434,2.469,5.434,7.357s-2.522,7.566-5.591,7.566a4.048,4.048,0,0,1-3.744-2.339v7.02h-3.25v-19.293h3.147Zm.1,7.591c.651,1.508,1.691,2.393,2.887,2.393,1.716,0,3.094-1.508,3.094-4.967,0-3.432-1.274-4.888-2.912-4.888-1.2,0-2.34.754-3.069,2.418Z"/><path d="M764.451,4437.48h-3.719v-3.587h3.719Z"/><path d="M776.541,4428.172c-.312-1.976-1.2-2.886-2.522-2.886-2.106,0-3.2,1.794-3.2,5.07,0,3.3,1.093,5.1,3.2,5.1,1.534,0,2.418-1.015,2.73-2.99l3.042.832a5.54,5.54,0,0,1-5.851,4.55c-4.056,0-6.474-2.782-6.474-7.437s2.5-7.513,6.474-7.513a5.45,5.45,0,0,1,5.773,4.549Z"/><path d="M794.74,4430.33c0,4.629-2.573,7.515-6.474,7.515s-6.448-2.808-6.448-7.437,2.6-7.513,6.474-7.513C792.14,4422.9,794.74,4425.7,794.74,4430.33Zm-9.568.026c0,3.3.988,5.123,3.094,5.123s3.12-1.794,3.12-5.123c0-3.276-.988-5.1-3.094-5.1S785.172,4427.08,785.172,4430.356Z"/><path d="M801.474,4437.48h-3.719v-3.587h3.719Z"/><path d="M809.091,4437.845c0,3.172-1.586,4.654-4.6,4.654-.312,0-.6-.052-1.014-.078l-.208-2.34a3.429,3.429,0,0,0,.7.078c1.248,0,1.872-.65,1.872-2.522v-14.431h3.25Zm.13-17.187h-3.51V4417.3h3.51Z"/><path d="M816.58,4425.313a4.731,4.731,0,0,1,4-2.418c3.121,0,5.435,2.469,5.435,7.357s-2.522,7.566-5.591,7.566a4.047,4.047,0,0,1-3.744-2.339v7.02h-3.25v-19.293h3.147Zm.1,7.591c.65,1.508,1.691,2.393,2.886,2.393,1.717,0,3.1-1.508,3.1-4.967,0-3.432-1.274-4.888-2.913-4.888-1.2,0-2.339.754-3.068,2.418Z"/></g></svg>