<svg xmlns="http://www.w3.org/2000/svg" width="155.737" height="20.397" viewBox="0 0 155.737 20.397"><g transform="translate(-387.264 -1527.167)"><path d="M387.264,1546.4v-16.92h9.065v2.728H390.52v4.466h5.413v2.663H390.52v7.063Z" fill="#00803e"/><path d="M407.064,1543.494a18.363,18.363,0,0,0,.177,2.9h-2.927l-.2-1.276h-.066a3.933,3.933,0,0,1-3.257,1.518,3.559,3.559,0,0,1-3.674-3.675c0-3.146,2.8-4.62,6.689-4.62,0-1.21-.418-2.135-2.2-2.135a5.986,5.986,0,0,0-3.015.836l-.616-2.112a8.632,8.632,0,0,1,4.247-1.034c3.806,0,4.84,2.42,4.84,5.1Zm-3.168-3.059c-1.76,0-3.586.418-3.586,2.2a1.493,1.493,0,0,0,1.54,1.673,2.039,2.039,0,0,0,2.046-2.113Z" fill="#00803e"/><path d="M418.014,1546.09a7.611,7.611,0,0,1-2.971.528c-3.586,0-5.918-2.332-5.918-6.227a6.113,6.113,0,0,1,6.425-6.491,7.139,7.139,0,0,1,2.552.462l-.528,2.487a4.285,4.285,0,0,0-1.914-.4c-2.047,0-3.235,1.65-3.235,3.806,0,2.4,1.387,3.784,3.257,3.784a4.638,4.638,0,0,0,1.98-.4Z" fill="#00803e"/><path d="M429.016,1545.914a10.37,10.37,0,0,1-3.961.7c-3.784,0-5.941-2.376-5.941-6.183,0-3.52,2.025-6.557,5.611-6.557,2.971,0,4.907,2.112,4.907,6.073a7.521,7.521,0,0,1-.088,1.3h-7.327c.088,2.09,1.584,2.927,3.345,2.927a8.9,8.9,0,0,0,2.992-.507Zm-2.4-6.931c.022-1.276-.485-2.838-2.091-2.838-1.562,0-2.222,1.628-2.31,2.838Z" fill="#00803e"/><path d="M435.129,1535.616a3.863,3.863,0,0,1,3.411-1.738c2.706,0,4.51,2.509,4.51,6.161,0,4.445-2.486,6.6-5.016,6.6a3.539,3.539,0,0,1-3.3-1.936h-.066l-.154,1.694h-2.772c.044-.88.088-2.266.088-3.521v-14.169h3.256v6.908Zm-.044,5.9a2.335,2.335,0,0,0,2.2,2.53c1.584,0,2.486-1.474,2.486-3.85,0-2.09-.814-3.718-2.486-3.718a2.433,2.433,0,0,0-2.2,2.64Z" fill="#00803e"/><path d="M456.017,1540.171c0,4.665-2.993,6.469-5.722,6.469-3.3,0-5.676-2.332-5.676-6.315,0-4.115,2.486-6.447,5.809-6.447C453.86,1533.878,456.017,1536.453,456.017,1540.171Zm-5.655-3.9c-1.8,0-2.443,2.113-2.443,3.983,0,2.179.836,3.983,2.42,3.983,1.541,0,2.377-1.826,2.377-4C452.716,1538.323,452.034,1536.276,450.362,1536.276Z" fill="#00803e"/><path d="M468.995,1540.171c0,4.665-2.993,6.469-5.722,6.469-3.3,0-5.676-2.332-5.676-6.315,0-4.115,2.486-6.447,5.809-6.447C466.838,1533.878,468.995,1536.453,468.995,1540.171Zm-5.656-3.9c-1.8,0-2.442,2.113-2.442,3.983,0,2.179.836,3.983,2.42,3.983,1.541,0,2.377-1.826,2.377-4C465.694,1538.323,465.012,1536.276,463.339,1536.276Z" fill="#00803e"/><path d="M482.073,1546.4H478.2l-2.861-5.237-.858,1.166v4.071h-3.256v-17.69h3.256v10.781h.066a16.216,16.216,0,0,1,.814-1.518l2.443-3.829h3.784l-4,5.039Z" fill="#00803e"/><path d="M481.141,1539.005c1.606-1.629,4.62-5.061,6.05-6.645a3.105,3.105,0,0,1,2.223-1.122,3.9,3.9,0,0,1,2.354,1.166,104.876,104.876,0,0,1,10.21,11.024l-2.355,2.266a99.028,99.028,0,0,0-9.131-10.737c-.462-.419-.726-.661-.991-.661-.241.022-.505.264-.9.683-.748.879-3.411,4.114-4.8,5.7a.864.864,0,0,1-.286.77Zm16.612-10.914a2.388,2.388,0,0,1,0,4.775,2.388,2.388,0,1,1,0-4.775Zm1.54,2.377a1.55,1.55,0,0,0-1.54-1.563,1.563,1.563,0,1,0,0,3.125A1.549,1.549,0,0,0,499.293,1530.468Z" fill="#00803e"/><path d="M502.25,1536.32h18.373v2.773H503.174a1.063,1.063,0,0,1-.748.418Z" fill="#00803e"/><path d="M524.408,1534.516a31.435,31.435,0,0,1,5.633,2.047l-1.188,2.4a32.721,32.721,0,0,0-5.633-2.156Zm.616,10.254c6.711-2.068,11.684-5.677,14.677-12.19a26.137,26.137,0,0,0,2.4,1.8,24.478,24.478,0,0,1-14.676,12.586.549.549,0,0,1-.33.594Zm2.025-15.666a33.879,33.879,0,0,1,5.677,2.178l-1.365,2.332a30.4,30.4,0,0,0-5.545-2.332Zm10.011-.7a16.949,16.949,0,0,1,2.6,3.059l-1.343,1.012a19.531,19.531,0,0,0-2.508-3.124Zm3.345-1.232a20.3,20.3,0,0,1,2.6,3.015l-1.32,1.012a20.557,20.557,0,0,0-2.509-3.059Z" fill="#00803e"/></g></svg>