<svg xmlns="http://www.w3.org/2000/svg" width="290.257" height="55.655" viewBox="0 0 290.257 55.655"><g transform="translate(-456.761 -2594.852)"><path d="M480.254,2595.335q9.668,0,14.9,5.511t5.237,15.34q0,10.15-6.542,16.435t-17.048,6.252q-9.315-.031-14.68-5.624t-5.365-15.227a21.81,21.81,0,0,1,6.574-16.226Q469.909,2595.336,480.254,2595.335Zm11.408,20.979a13.867,13.867,0,0,0-3.368-9.7,11.388,11.388,0,0,0-8.846-3.706,12.966,12.966,0,0,0-9.781,4.431,14.928,14.928,0,0,0-4.141,10.555,13.837,13.837,0,0,0,3.4,9.635,11.174,11.174,0,0,0,8.685,3.771,13.12,13.12,0,0,0,9.91-4.415A14.916,14.916,0,0,0,491.662,2616.314Z" fill="#00803e"/><path d="M506.481,2611.029h7.976l-2.165,14.471-.064.9a4.613,4.613,0,0,0,1.191,3.335,4.177,4.177,0,0,0,3.155,1.241,4.427,4.427,0,0,0,3.316-1.5,7.082,7.082,0,0,0,1.77-3.98l2.03-14.47h7.876l-1.578,11.152a51.334,51.334,0,0,1-2.062,9.588,10.576,10.576,0,0,1-3.918,5.058,12.343,12.343,0,0,1-7.3,1.982q-5.836,0-8.964-3.175t-3.128-9.168a31.107,31.107,0,0,1,.258-4.222Z" fill="#00803e"/><path d="M553.828,2611.223l-1.9,7.347a6.865,6.865,0,0,0-2.93-.548q-5.444,0-6.506,7.285l-1.95,12.986h-7.886l4.093-27.264h7.885l-.289,1.928a10.461,10.461,0,0,1,6.441-2.572A6.26,6.26,0,0,1,553.828,2611.223Z" fill="#00803e"/><path d="M593.052,2614.542l.511-3.513h7.913l-4.028,27.264H589.6l.413-2.836a13.094,13.094,0,0,1-8.391,3.352,9.435,9.435,0,0,1-7.5-3.513,13.258,13.258,0,0,1-2.985-8.9,17.408,17.408,0,0,1,3.755-11.311,11.346,11.346,0,0,1,9.106-4.641Q588.733,2610.449,593.052,2614.542Zm-13.927,11.15a6.479,6.479,0,0,0,1.48,4.448,5.052,5.052,0,0,0,3.989,1.675,6.43,6.43,0,0,0,4.986-2.32,8.333,8.333,0,0,0,2.059-5.736,6.2,6.2,0,0,0-1.722-4.447,5.61,5.61,0,0,0-4.229-1.8,5.783,5.783,0,0,0-4.7,2.32A9.067,9.067,0,0,0,579.125,2625.692Z" fill="#00803e"/><path d="M627.172,2612.963l-1,6.51-.322-.129a18.329,18.329,0,0,0-3.449-1.628,11.679,11.679,0,0,0-3.545-.467,7.154,7.154,0,0,0-5.526,2.529,8.907,8.907,0,0,0-2.272,6.172,6,6,0,0,0,1.837,4.673,7.374,7.374,0,0,0,5.156,1.676,19.512,19.512,0,0,0,6.413-1.515l-1,6.993a31.96,31.96,0,0,1-7.187,1.1,12.6,12.6,0,0,1-9.378-3.77,13.053,13.053,0,0,1-3.706-9.54,16.057,16.057,0,0,1,3.964-10.215q3.965-4.9,11.215-4.9A17.306,17.306,0,0,1,627.172,2612.963Z" fill="#00803e"/><path d="M635.059,2601.265h7.848l-1.428,9.764h3.667l-1.131,7.864H640.46l-2.966,19.4h-7.849l2.772-19.4h-2.966l1.134-7.864h3.046Z" fill="#00803e"/><path d="M648.949,2611.029h7.884l-4.094,27.264h-7.818Zm5.543-6.026a4.816,4.816,0,0,1-3.609-1.542,5.106,5.106,0,0,1-1.483-3.662,4.687,4.687,0,0,1,1.5-3.5,4.989,4.989,0,0,1,3.593-1.445,4.934,4.934,0,0,1,3.577,1.445,4.712,4.712,0,0,1,1.483,3.5,5.152,5.152,0,0,1-1.434,3.71,4.664,4.664,0,0,1-3.5,1.494Z" fill="#00803e"/><path d="M658.688,2611.029h7.443l4.836,15.437,8.428-15.437h8.2l-14.958,27.264H667.4Z" fill="#00803e"/><path d="M690.517,2611.029H698.4l-4.094,27.264h-7.818ZM696.06,2605a4.818,4.818,0,0,1-3.61-1.542,5.1,5.1,0,0,1-1.482-3.662,4.685,4.685,0,0,1,1.5-3.5,4.991,4.991,0,0,1,3.594-1.445,4.937,4.937,0,0,1,3.577,1.445,4.711,4.711,0,0,1,1.482,3.5,5.148,5.148,0,0,1-1.434,3.71,4.664,4.664,0,0,1-3.5,1.494Z" fill="#00803e"/><path d="M706.351,2601.265H714.2l-1.428,9.764h3.667l-1.131,7.864h-3.555l-2.966,19.4h-7.849l2.771-19.4h-2.965l1.134-7.864h3.046Z" fill="#00803e"/><path d="M718.175,2611.029H725.5l4.7,14.527,8.574-14.527h8.251l-23.489,39.478h-8.061l9.891-16.761Z" fill="#00803e"/></g></svg>