<svg xmlns="http://www.w3.org/2000/svg" width="184.71" height="43.699" viewBox="0 0 184.71 43.699"><g transform="translate(-508.583 -4186.868)"><path d="M544.355,4190.413l-1.128,7.734a14.916,14.916,0,0,0-9.829-3.512,15.307,15.307,0,0,0-11.054,4.64,14.629,14.629,0,0,0-4.737,10.764,12.114,12.114,0,0,0,3.4,8.91,11.861,11.861,0,0,0,8.814,3.433,22.551,22.551,0,0,0,10.7-3.126l-1.257,8.6a22.858,22.858,0,0,1-10.635,2.707q-9.41,0-14.727-5.929a20.389,20.389,0,0,1-5.318-14.083q0-10.829,7.123-17.258t15.629-6.429A22.754,22.754,0,0,1,544.355,4190.413Z" fill="#00803e"/><path d="M573.577,4215.969a13.445,13.445,0,0,1-4.48,10.168,15.257,15.257,0,0,1-10.828,4.2,14.121,14.121,0,0,1-10.087-3.947,12.7,12.7,0,0,1-4.157-9.556,15.2,15.2,0,0,1,14.824-14.857,14.8,14.8,0,0,1,10.619,3.9A13.283,13.283,0,0,1,573.577,4215.969Zm-21.238.515a6.462,6.462,0,0,0,1.853,4.721,6.18,6.18,0,0,0,4.593,1.886,6.1,6.1,0,0,0,4.608-2.063,6.878,6.878,0,0,0,1.934-4.866,6.779,6.779,0,0,0-1.821-4.914,6.269,6.269,0,0,0-4.721-1.886,5.934,5.934,0,0,0-4.56,2.079A7.238,7.238,0,0,0,552.339,4216.484Z" fill="#00803e"/><path d="M586.716,4202.563l-.536,2.917a33.584,33.584,0,0,1,3.987-2.671,7.049,7.049,0,0,1,3.4-.827,6.405,6.405,0,0,1,5.245,2.465A10.147,10.147,0,0,1,600.8,4211a12.379,12.379,0,0,1-.161,2.191l-2.484,16.63H590.3l2.385-15.759a15.286,15.286,0,0,0,.128-2.255q0-3.705-2.972-3.707a3.9,3.9,0,0,0-3.151,1.756,9.8,9.8,0,0,0-1.76,4.59l-2.308,15.375h-7.952l4.093-27.263Z" fill="#00803e"/><path d="M609.332,4192.8h7.848l-1.428,9.765h3.666l-1.13,7.863h-3.555l-2.966,19.4h-7.85l2.772-19.4h-2.965l1.134-7.863H607.9Z" fill="#00803e"/><path d="M641.2,4206.075l.511-3.512h7.913l-4.028,27.263h-7.849l.413-2.836a13.088,13.088,0,0,1-8.391,3.352,9.436,9.436,0,0,1-7.5-3.513,13.254,13.254,0,0,1-2.985-8.894,17.408,17.408,0,0,1,3.755-11.312,11.345,11.345,0,0,1,9.106-4.641Q636.881,4201.982,641.2,4206.075Zm-13.927,11.151a6.471,6.471,0,0,0,1.48,4.447,5.053,5.053,0,0,0,3.989,1.676,6.43,6.43,0,0,0,4.986-2.321,8.332,8.332,0,0,0,2.059-5.736,6.2,6.2,0,0,0-1.722-4.447,5.616,5.616,0,0,0-4.23-1.805,5.783,5.783,0,0,0-4.7,2.32A9.069,9.069,0,0,0,627.273,4217.226Z" fill="#00803e"/><path d="M675.32,4204.5l-1,6.51-.322-.129a18.378,18.378,0,0,0-3.449-1.627,11.651,11.651,0,0,0-3.545-.468,7.149,7.149,0,0,0-5.526,2.531,8.9,8.9,0,0,0-2.272,6.17,6.007,6.007,0,0,0,1.836,4.673,7.377,7.377,0,0,0,5.157,1.676,19.481,19.481,0,0,0,6.413-1.515l-1,6.994a31.946,31.946,0,0,1-7.187,1.095,12.6,12.6,0,0,1-9.378-3.77,13.051,13.051,0,0,1-3.706-9.539,16.056,16.056,0,0,1,3.964-10.216q3.965-4.9,11.215-4.9A17.3,17.3,0,0,1,675.32,4204.5Z" fill="#00803e"/><path d="M683.207,4192.8h7.848l-1.428,9.765h3.666l-1.13,7.863h-3.555l-2.966,19.4h-7.85l2.772-19.4H677.6l1.134-7.863h3.046Z" fill="#00803e"/></g></svg>