<svg xmlns="http://www.w3.org/2000/svg" width="259.297" height="57.685" viewBox="0 0 259.297 57.685"><g transform="translate(-472.004 -481.13)"><path d="M477.01,484.288h8.8q15.888,0,15.888,13.406a13.949,13.949,0,0,1-1.579,6.542,11.805,11.805,0,0,1-3.995,4.593,12.575,12.575,0,0,1-4.994,1.949,77.694,77.694,0,0,1-9.215.451L479.647,526.6h-8.76Zm7.774,7.477-1.819,11.891h2.354a7.632,7.632,0,0,0,5.241-1.864,5.859,5.859,0,0,0,2.112-4.563,5.032,5.032,0,0,0-1.745-3.889,6.188,6.188,0,0,0-4.3-1.575Z" transform="translate(1.117)" fill="#fff"/><path d="M508.237,481.13h7.852l-3.109,21.189a21.487,21.487,0,0,1,3.873-2.7,8.026,8.026,0,0,1,3.71-.858,6.115,6.115,0,0,1,5.114,2.513,10.929,10.929,0,0,1,1.921,6.8,13.792,13.792,0,0,1-.226,2.353L524.978,526.6H517.1l1.9-13.213a34.653,34.653,0,0,0,.484-5.414,3.15,3.15,0,0,0-.792-2.256,2.774,2.774,0,0,0-2.118-.838q-3.978,0-5.046,7.344L509.419,526.6h-7.95Z" transform="translate(1.117)" fill="#fff"/><path d="M533.231,499.338h7.883L537.021,526.6H529.2Zm5.543-6.026a4.815,4.815,0,0,1-3.609-1.542,5.1,5.1,0,0,1-1.483-3.663,4.686,4.686,0,0,1,1.5-3.5,4.99,4.99,0,0,1,3.593-1.446,4.937,4.937,0,0,1,3.577,1.446,4.711,4.711,0,0,1,1.482,3.5,5.15,5.15,0,0,1-1.434,3.711,4.663,4.663,0,0,1-3.5,1.494Z" transform="translate(1.117)" fill="#fff"/><path d="M563.4,499.531l-1.9,7.348a6.867,6.867,0,0,0-2.931-.548q-5.442,0-6.505,7.284l-1.95,12.987h-7.886l4.092-27.264h7.886l-.289,1.928a10.463,10.463,0,0,1,6.441-2.573A6.262,6.262,0,0,1,563.4,499.531Z" transform="translate(1.117)" fill="#fff"/><path d="M591.581,512.744a13.444,13.444,0,0,1-4.479,10.168,15.255,15.255,0,0,1-10.829,4.205,14.109,14.109,0,0,1-10.086-3.948,12.689,12.689,0,0,1-4.158-9.555,15.2,15.2,0,0,1,14.825-14.856,14.8,14.8,0,0,1,10.618,3.9A13.283,13.283,0,0,1,591.581,512.744Zm-21.237.516a6.461,6.461,0,0,0,1.853,4.721,6.18,6.18,0,0,0,4.592,1.885A6.1,6.1,0,0,0,581.4,517.8a6.876,6.876,0,0,0,1.934-4.866,6.778,6.778,0,0,0-1.821-4.915,6.269,6.269,0,0,0-4.721-1.885,5.936,5.936,0,0,0-4.56,2.078A7.239,7.239,0,0,0,570.344,513.26Z" transform="translate(1.117)" fill="#fff"/><path d="M610.891,502.722l-4.028,4.092q-2.289-2.127-4.029-2.126a2.839,2.839,0,0,0-1.724.645,1.95,1.95,0,0,0-.854,1.612,3.112,3.112,0,0,0,.885,2.243,13.682,13.682,0,0,0,3.545,2.221,11.109,11.109,0,0,1,3.933,2.93,6.519,6.519,0,0,1,1.273,4.141,8.034,8.034,0,0,1-2.9,6.156,9.924,9.924,0,0,1-6.865,2.61q-5.576,0-8.83-5.478l4.415-3.416q1.934,2.9,4.222,2.9a3.25,3.25,0,0,0,2.095-.7,2.1,2.1,0,0,0,.87-1.7,2.52,2.52,0,0,0-.931-1.907,18.606,18.606,0,0,0-3.484-2.179q-5.028-2.674-5.027-7.379a7.984,7.984,0,0,1,2.707-6.188,9.754,9.754,0,0,1,6.8-2.449Q607.346,498.758,610.891,502.722Z" transform="translate(1.117)" fill="#fff"/><path d="M641.5,512.744a13.442,13.442,0,0,1-4.48,10.168,15.251,15.251,0,0,1-10.828,4.205,14.113,14.113,0,0,1-10.087-3.948,12.692,12.692,0,0,1-4.157-9.555,15.2,15.2,0,0,1,14.824-14.856,14.8,14.8,0,0,1,10.619,3.9A13.283,13.283,0,0,1,641.5,512.744Zm-21.237.516a6.461,6.461,0,0,0,1.853,4.721,6.18,6.18,0,0,0,4.592,1.885,6.1,6.1,0,0,0,4.608-2.062,6.88,6.88,0,0,0,1.934-4.866,6.778,6.778,0,0,0-1.821-4.915,6.269,6.269,0,0,0-4.721-1.885,5.936,5.936,0,0,0-4.56,2.078A7.239,7.239,0,0,0,620.266,513.26Z" transform="translate(1.117)" fill="#fff"/><path d="M651.083,523.5l-2.3,15.312h-7.849l5.769-39.477h8.012l-.292,1.936a25.348,25.348,0,0,1,3.912-1.936,11.194,11.194,0,0,1,3.815-.58,9.14,9.14,0,0,1,7.4,3.609,14.207,14.207,0,0,1,2.93,9.249,16.419,16.419,0,0,1-3.874,11.022,11.8,11.8,0,0,1-9.263,4.544Q655.312,527.182,651.083,523.5Zm6.764-3.508a5.99,5.99,0,0,0,4.774-2.256,8.489,8.489,0,0,0,1.9-5.672,6.463,6.463,0,0,0-1.629-4.721,6.151,6.151,0,0,0-4.6-1.659,5.569,5.569,0,0,0-4.4,2.5,8.985,8.985,0,0,0-1.951,5.687,6.142,6.142,0,0,0,1.645,4.367,5.345,5.345,0,0,0,4.064,1.757Z" transform="translate(1.117)" fill="#fff"/><path d="M680.406,481.13h7.852l-3.108,21.189a21.486,21.486,0,0,1,3.872-2.7,8.03,8.03,0,0,1,3.711-.858,6.116,6.116,0,0,1,5.114,2.513,10.935,10.935,0,0,1,1.92,6.8,13.884,13.884,0,0,1-.225,2.353l-2.4,16.179h-7.878l1.9-13.213a34.761,34.761,0,0,0,.483-5.414,3.149,3.149,0,0,0-.791-2.256,2.775,2.775,0,0,0-2.118-.838q-3.98,0-5.047,7.344L681.588,526.6h-7.949Z" transform="translate(1.117)" fill="#fff"/><path d="M701.341,499.338h7.323l4.7,14.527,8.574-14.527h8.251L706.7,538.815h-8.061l9.891-16.76Z" transform="translate(1.117)" fill="#fff"/></g></svg>