<svg xmlns="http://www.w3.org/2000/svg" viewBox="0 0 101.64 56.02"><g id="Layer_2" data-name="Layer 2"><g id="レイヤー_1" data-name="レイヤー 1"><path d="M7.57,27.32a3.45,3.45,0,0,0,1.81-3c0-2.18-1.46-3.28-4.4-3.28h-3L0,33.88H4a7.28,7.28,0,0,0,4.06-1,3.18,3.18,0,0,0-.53-5.6Zm-1.35,4a3.44,3.44,0,0,1-1.91.48H3l.52-3.5H4.6a2.66,2.66,0,0,1,1.67.52,1.57,1.57,0,0,1,.67,1.28A1.41,1.41,0,0,1,6.22,31.29Zm.15-5.47a2.71,2.71,0,0,1-1.56.43h-1l.46-3.07H5a2.21,2.21,0,0,1,1.44.43A1.37,1.37,0,0,1,7,24.74,1.28,1.28,0,0,1,6.37,25.82Z"/><path d="M17.46,26.69a3.93,3.93,0,0,0-2.74-1.24A3.46,3.46,0,0,0,12,26.85a5.28,5.28,0,0,0-1.14,3.43,4,4,0,0,0,.91,2.7A2.85,2.85,0,0,0,14,34a4,4,0,0,0,2.54-1l-.12.85H18.8L20,25.62h-2.4Zm-1.05,4.53a1.93,1.93,0,0,1-1.51.7,1.53,1.53,0,0,1-1.21-.51,1.92,1.92,0,0,1-.45-1.34,2.73,2.73,0,0,1,.57-1.78,1.75,1.75,0,0,1,1.42-.7,1.69,1.69,0,0,1,1.28.54A1.9,1.9,0,0,1,17,29.48,2.52,2.52,0,0,1,16.41,31.22Z"/><path d="M21.94,26.93a4.87,4.87,0,0,0-1.2,3.1,4,4,0,0,0,1.13,2.89,3.8,3.8,0,0,0,2.84,1.14,9.69,9.69,0,0,0,2.17-.33l.31-2.12a5.84,5.84,0,0,1-2,.46,2.22,2.22,0,0,1-1.56-.51,1.83,1.83,0,0,1-.56-1.42,2.72,2.72,0,0,1,.69-1.87,2.17,2.17,0,0,1,1.68-.76,3.65,3.65,0,0,1,1.07.14,5.53,5.53,0,0,1,1.05.49l.1,0,.3-2a5.24,5.24,0,0,0-2.67-.76A4.13,4.13,0,0,0,21.94,26.93Z"/><polygon points="33.96 25.62 31.56 28.64 32.81 20.11 30.43 20.11 28.39 33.88 30.79 33.88 31.28 30.45 33.38 33.88 35.85 33.88 33.41 29.8 36.69 25.62 33.96 25.62"/><path d="M73.63,0a28,28,0,1,0,28,28A28,28,0,0,0,73.63,0Zm0,55a27,27,0,1,1,27-27A27,27,0,0,1,73.63,55Z"/><polygon points="75.03 20.16 67.18 28.01 75.03 35.86 75.74 35.16 68.59 28.01 75.74 20.86 75.03 20.16"/></g></g></svg>