<svg xmlns="http://www.w3.org/2000/svg" width="89.808" height="16.865" viewBox="0 0 89.808 16.865"><g transform="translate(-3776.852 115.793) rotate(-90)"><path d="M115.646,3783.971a5.932,5.932,0,0,1-1.669,4.516,6.475,6.475,0,0,1-4.649,1.587,6.589,6.589,0,0,1-4.98-1.982,7.112,7.112,0,0,1-1.895-5.166,5.9,5.9,0,0,1,1.7-4.448,6.387,6.387,0,0,1,4.614-1.626,6.608,6.608,0,0,1,4.917,1.992A7,7,0,0,1,115.646,3783.971Zm-6.357,3.457a4.2,4.2,0,0,0,2.94-1.021,3.449,3.449,0,0,0,1.123-2.68,3.93,3.93,0,0,0-1.343-2.964,4.527,4.527,0,0,0-3.2-1.255,4.2,4.2,0,0,0-2.92,1.03,3.388,3.388,0,0,0-1.143,2.632,3.974,3.974,0,0,0,1.338,3A4.516,4.516,0,0,0,109.289,3787.428Z" fill="#fff"/><path d="M110.891,3792.154v2.417l-4.386-.656-.273-.019a1.394,1.394,0,0,0-1.01.361,1.261,1.261,0,0,0-.376.956,1.34,1.34,0,0,0,.454,1.005,2.139,2.139,0,0,0,1.206.536l4.385.615v2.387l-3.38-.479a15.421,15.421,0,0,1-2.9-.625,3.193,3.193,0,0,1-1.533-1.186,3.746,3.746,0,0,1-.6-2.214,3.641,3.641,0,0,1,.962-2.716,3.794,3.794,0,0,1,2.778-.948,9.438,9.438,0,0,1,1.279.078Z" fill="#fff"/><path d="M110.832,3806.7l-2.227-.576a2.074,2.074,0,0,0,.166-.888q0-1.648-2.207-1.971l-3.935-.591v-2.39l8.262,1.24v2.39l-.584-.088a3.172,3.172,0,0,1,.779,1.952A1.9,1.9,0,0,1,110.832,3806.7Z" fill="#fff"/><path d="M109.826,3818.584l1.065.155v2.4l-8.262-1.221v-2.378l.859.125a3.967,3.967,0,0,1-1.015-2.543,2.859,2.859,0,0,1,1.064-2.273,4.018,4.018,0,0,1,2.695-.905,5.272,5.272,0,0,1,3.428,1.138,3.438,3.438,0,0,1,1.406,2.76A3.965,3.965,0,0,1,109.826,3818.584Zm-3.379-4.22a1.958,1.958,0,0,0-1.347.449,1.528,1.528,0,0,0-.508,1.208,1.948,1.948,0,0,0,.7,1.511,2.524,2.524,0,0,0,1.738.624,1.886,1.886,0,0,0,1.348-.521,1.7,1.7,0,0,0,.547-1.282,1.753,1.753,0,0,0-.7-1.423A2.747,2.747,0,0,0,106.447,3814.364Z" fill="#fff"/><path d="M110.305,3829.128l-1.973-.3.039-.1a5.6,5.6,0,0,0,.493-1.045,3.556,3.556,0,0,0,.142-1.075,2.166,2.166,0,0,0-.767-1.674,2.7,2.7,0,0,0-1.87-.689,1.821,1.821,0,0,0-1.416.557,2.235,2.235,0,0,0-.508,1.562,5.923,5.923,0,0,0,.459,1.944l-2.119-.3a9.692,9.692,0,0,1-.332-2.178,3.814,3.814,0,0,1,1.143-2.842,3.951,3.951,0,0,1,2.89-1.123,4.869,4.869,0,0,1,3.1,1.2,4.123,4.123,0,0,1,1.484,3.4A5.244,5.244,0,0,1,110.305,3829.128Z" fill="#fff"/><path d="M113.85,3831.72v2.378l-2.959-.433v1.111l-2.383-.342v-1.078l-5.879-.9v-2.378l5.879.84v-.9l2.383.343v.923Z" fill="#fff"/><path d="M110.891,3836.129v2.389l-8.262-1.241v-2.369Zm1.826,1.68a1.46,1.46,0,0,1,.467-1.094,1.544,1.544,0,0,1,1.11-.449,1.419,1.419,0,0,1,1.061.454,1.567,1.567,0,0,1,0,2.173,1.433,1.433,0,0,1-1.061.449,1.565,1.565,0,0,1-1.125-.435,1.416,1.416,0,0,1-.452-1.059Z" fill="#fff"/><path d="M110.891,3839.278v2.255L106.213,3843l4.678,2.554v2.485l-8.262-4.533v-1.588Z" fill="#fff"/><path d="M110.891,3849.146v2.389l-8.262-1.24v-2.369Zm1.826,1.68a1.463,1.463,0,0,1,.467-1.094,1.553,1.553,0,0,1,1.11-.449,1.423,1.423,0,0,1,1.061.454,1.514,1.514,0,0,1,.438,1.089,1.494,1.494,0,0,1-.438,1.084,1.425,1.425,0,0,1-1.061.449,1.56,1.56,0,0,1-1.125-.434,1.415,1.415,0,0,1-.452-1.06Z" fill="#fff"/><path d="M113.85,3854.142v2.378l-2.959-.433v1.111l-2.383-.343v-1.077l-5.879-.9V3852.5l5.879.84v-.9l2.383.344v.923Z" fill="#fff"/><path d="M110.891,3857.92v2.22l-4.4,1.422,4.4,2.6v2.5l-11.963-7.117V3857.1l5.079,3Z" fill="#fff"/></g></svg>