<svg xmlns="http://www.w3.org/2000/svg" width="57.198" height="13.242" viewBox="0 0 57.198 13.242"><g transform="translate(-3929.323 115.646) rotate(-90)"><path d="M114.572,3940.163l-2.343-.342a4.516,4.516,0,0,0,1.064-2.978,4.64,4.64,0,0,0-1.406-3.35,4.433,4.433,0,0,0-3.262-1.435,3.669,3.669,0,0,0-2.7,1.03,3.593,3.593,0,0,0-1.04,2.671,6.834,6.834,0,0,0,.947,3.242l-2.607-.381a6.931,6.931,0,0,1-.821-3.223,5.686,5.686,0,0,1,1.8-4.462,6.177,6.177,0,0,1,4.268-1.612,6.7,6.7,0,0,1,5.229,2.158,7.154,7.154,0,0,1,.874,8.682Z" fill="#fff"/><path d="M106.828,3949.259a4.074,4.074,0,0,1-3.081-1.358,4.619,4.619,0,0,1-1.274-3.281,4.28,4.28,0,0,1,1.2-3.057,3.849,3.849,0,0,1,2.9-1.259,4.6,4.6,0,0,1,4.5,4.492,4.488,4.488,0,0,1-1.181,3.218A4.026,4.026,0,0,1,106.828,3949.259Zm-.156-6.436a1.957,1.957,0,0,0-1.431.562,1.871,1.871,0,0,0-.571,1.391,1.851,1.851,0,0,0,.625,1.4,2.087,2.087,0,0,0,1.475.586,2.059,2.059,0,0,0,1.489-.552,1.9,1.9,0,0,0,.571-1.431,1.794,1.794,0,0,0-.63-1.381A2.193,2.193,0,0,0,106.672,3942.823Z" fill="#fff"/><path d="M110.891,3953.43l-.885-.162a10.159,10.159,0,0,1,.81,1.208,2.133,2.133,0,0,1,.25,1.031,1.941,1.941,0,0,1-.747,1.59,3.078,3.078,0,0,1-1.986.6,3.709,3.709,0,0,1-.665-.049l-5.039-.753v-2.379l4.775.722a4.619,4.619,0,0,0,.684.039q1.122,0,1.123-.9a1.179,1.179,0,0,0-.532-.954,2.967,2.967,0,0,0-1.391-.534l-4.659-.7v-2.409l8.262,1.241Z" fill="#fff"/><path d="M113.85,3960.469v2.379l-2.959-.433v1.11l-2.383-.342V3962.1l-5.879-.9v-2.379l5.879.84v-.9l2.383.343v.923Z" fill="#fff"/><path d="M109.826,3970.328l1.065.155v2.4l-8.262-1.221v-2.378l.859.125a3.967,3.967,0,0,1-1.015-2.543,2.859,2.859,0,0,1,1.064-2.273,4.017,4.017,0,0,1,2.695-.9,5.271,5.271,0,0,1,3.428,1.137,3.438,3.438,0,0,1,1.406,2.76A3.964,3.964,0,0,1,109.826,3970.328Zm-3.379-4.22a1.96,1.96,0,0,0-1.347.449,1.529,1.529,0,0,0-.508,1.209,1.947,1.947,0,0,0,.7,1.51,2.524,2.524,0,0,0,1.738.624,1.881,1.881,0,0,0,1.348-.521,1.7,1.7,0,0,0,.547-1.282,1.752,1.752,0,0,0-.7-1.423A2.747,2.747,0,0,0,106.447,3966.108Z" fill="#fff"/><path d="M110.305,3980.872l-1.973-.3.039-.1a5.6,5.6,0,0,0,.493-1.045,3.552,3.552,0,0,0,.142-1.074,2.167,2.167,0,0,0-.767-1.675,2.7,2.7,0,0,0-1.87-.689,1.822,1.822,0,0,0-1.416.557,2.237,2.237,0,0,0-.508,1.562,5.921,5.921,0,0,0,.459,1.944l-2.119-.3a9.7,9.7,0,0,1-.332-2.178,3.817,3.817,0,0,1,1.143-2.842,3.951,3.951,0,0,1,2.89-1.123,4.865,4.865,0,0,1,3.1,1.2,4.119,4.119,0,0,1,1.484,3.4A5.244,5.244,0,0,1,110.305,3980.872Z" fill="#fff"/><path d="M113.85,3983.464v2.378l-2.959-.433v1.112l-2.383-.343V3985.1l-5.879-.9v-2.378l5.879.84v-.9l2.383.343v.923Z" fill="#fff"/></g></svg>