<svg xmlns="http://www.w3.org/2000/svg" width="25.279" height="16.523" viewBox="0 0 25.279 16.523"><g transform="translate(-3392.446 115.451) rotate(-90)"><path d="M115.451,3392.759v7.861l-2.265-.342v-2.619l-10.557-1.543V3393.5l10.557,1.523v-2.578Z" fill="#fff"/><path d="M106.828,3408.146a4.074,4.074,0,0,1-3.081-1.358,4.616,4.616,0,0,1-1.274-3.281,4.281,4.281,0,0,1,1.2-3.057,3.846,3.846,0,0,1,2.9-1.26,4.605,4.605,0,0,1,4.5,4.493,4.484,4.484,0,0,1-1.181,3.217A4.026,4.026,0,0,1,106.828,3408.146Zm-.156-6.436a1.96,1.96,0,0,0-1.431.561,1.875,1.875,0,0,0-.571,1.392,1.849,1.849,0,0,0,.625,1.4,2.087,2.087,0,0,0,1.475.586,2.055,2.055,0,0,0,1.489-.552,1.9,1.9,0,0,0,.571-1.431,1.8,1.8,0,0,0-.63-1.382A2.192,2.192,0,0,0,106.672,3401.71Z" fill="#fff"/><path d="M103.568,3411.239l-4.64-.7v-2.378l11.963,1.748v2.428l-.587-.088a7.688,7.688,0,0,1,.587,1.185,3.4,3.4,0,0,1,.175,1.156,2.77,2.77,0,0,1-1.093,2.244,4.3,4.3,0,0,1-2.8.888,4.977,4.977,0,0,1-3.34-1.174,3.577,3.577,0,0,1-1.377-2.808A3.876,3.876,0,0,1,103.568,3411.239Zm1.063,2.05a1.815,1.815,0,0,0,.683,1.446,2.573,2.573,0,0,0,1.719.578,1.96,1.96,0,0,0,1.431-.495,1.863,1.863,0,0,0,.5-1.392,1.688,1.688,0,0,0-.757-1.334,2.719,2.719,0,0,0-1.723-.592,1.86,1.86,0,0,0-1.324.5,1.617,1.617,0,0,0-.532,1.231Z" fill="#fff"/></g></svg>