<svg xmlns="http://www.w3.org/2000/svg" width="84.36" height="13.955" viewBox="0 0 84.36 13.955"><g transform="translate(-3629.396 116.428) rotate(-90)"><path d="M115.451,3631.3v2.637l-12.822-1.9V3629.4Z" fill="#fff"/><path d="M110.891,3637.854l-.885-.164a10.446,10.446,0,0,1,.81,1.208,2.145,2.145,0,0,1,.25,1.033,1.94,1.94,0,0,1-.747,1.589,3.073,3.073,0,0,1-1.986.6,3.8,3.8,0,0,1-.665-.049l-5.039-.752v-2.381l4.775.723a4.626,4.626,0,0,0,.684.039q1.122,0,1.123-.9a1.182,1.182,0,0,0-.532-.955,2.966,2.966,0,0,0-1.391-.533l-4.659-.7v-2.41l8.262,1.24Z" fill="#fff"/><path d="M116.252,3648.824l-2.305-.294a1.57,1.57,0,0,0,.117-.566.746.746,0,0,0-.55-.773,17.842,17.842,0,0,0-2.623-.441v1.293l-2.383-.331v-1.343l-5.879-.84v-2.408l5.879.858v-.643l2.383.379v.64l1.181.143a9.025,9.025,0,0,1,2.554.6,3.309,3.309,0,0,1,1.294,1.091,2.712,2.712,0,0,1,.508,1.6A4.247,4.247,0,0,1,116.252,3648.824Z" fill="#fff"/><path d="M106.828,3656.89a4.074,4.074,0,0,1-3.081-1.358,4.62,4.62,0,0,1-1.274-3.281,4.279,4.279,0,0,1,1.2-3.057,3.844,3.844,0,0,1,2.9-1.259,4.6,4.6,0,0,1,4.5,4.492,4.49,4.49,0,0,1-1.181,3.218A4.026,4.026,0,0,1,106.828,3656.89Zm-.156-6.436a1.957,1.957,0,0,0-1.431.562,1.871,1.871,0,0,0-.571,1.391,1.85,1.85,0,0,0,.625,1.4,2.086,2.086,0,0,0,1.475.586,2.058,2.058,0,0,0,1.489-.552,1.9,1.9,0,0,0,.571-1.431,1.8,1.8,0,0,0-.63-1.382A2.2,2.2,0,0,0,106.672,3650.454Z" fill="#fff"/><path d="M110.832,3663.827l-2.227-.576a2.073,2.073,0,0,0,.166-.888q0-1.649-2.207-1.971l-3.935-.591v-2.39l8.262,1.24v2.39l-.584-.088a3.173,3.173,0,0,1,.779,1.952A1.9,1.9,0,0,1,110.832,3663.827Z" fill="#fff"/><path d="M110.891,3667.081l-1.122-.141a3.463,3.463,0,0,1,1.3,2.558,1.8,1.8,0,0,1-.449,1.3,2.98,2.98,0,0,1-1.406.723,3.643,3.643,0,0,1,1.855,2.9q0,2.136-2.841,2.137a7.772,7.772,0,0,1-1-.059l-4.6-.618v-2.4l4.717.655a5.421,5.421,0,0,0,.742.058q1.143,0,1.142-.936a1.4,1.4,0,0,0-.542-1.083,2.655,2.655,0,0,0-1.362-.595l-4.7-.722v-2.377l4.844.694c.234.025.413.039.537.039q1.221,0,1.22-.918a1.5,1.5,0,0,0-.522-1.1,2.345,2.345,0,0,0-1.323-.62l-4.756-.681v-2.4l8.262,1.182Z" fill="#fff"/><path d="M109.826,3684.007l1.065.155v2.4l-8.262-1.221v-2.378l.859.125a3.967,3.967,0,0,1-1.015-2.543,2.859,2.859,0,0,1,1.064-2.273,4.018,4.018,0,0,1,2.695-.905,5.272,5.272,0,0,1,3.428,1.138,3.438,3.438,0,0,1,1.406,2.76A3.965,3.965,0,0,1,109.826,3684.007Zm-3.379-4.22a1.963,1.963,0,0,0-1.347.448,1.531,1.531,0,0,0-.508,1.209,1.948,1.948,0,0,0,.7,1.511,2.524,2.524,0,0,0,1.738.624,1.886,1.886,0,0,0,1.348-.521,1.7,1.7,0,0,0,.547-1.283,1.751,1.751,0,0,0-.7-1.422A2.747,2.747,0,0,0,106.447,3679.787Z" fill="#fff"/><path d="M113.85,3689.085v2.379l-2.959-.433v1.111l-2.383-.343v-1.077l-5.879-.9v-2.379l5.879.84v-.9l2.383.343v.923Z" fill="#fff"/><path d="M110.891,3693.494v2.389l-8.262-1.24v-2.37Zm1.826,1.68a1.462,1.462,0,0,1,.467-1.094,1.548,1.548,0,0,1,1.11-.449,1.419,1.419,0,0,1,1.061.454,1.514,1.514,0,0,1,.438,1.089,1.5,1.5,0,0,1-.438,1.084,1.425,1.425,0,0,1-1.061.449,1.557,1.557,0,0,1-1.125-.435,1.413,1.413,0,0,1-.452-1.059Z" fill="#fff"/><path d="M106.828,3705.316a4.076,4.076,0,0,1-3.081-1.357,4.62,4.62,0,0,1-1.274-3.281,4.277,4.277,0,0,1,1.2-3.057,3.845,3.845,0,0,1,2.9-1.26,4.6,4.6,0,0,1,4.5,4.493,4.486,4.486,0,0,1-1.181,3.217A4.026,4.026,0,0,1,106.828,3705.316Zm-.156-6.435a1.956,1.956,0,0,0-1.431.561,1.872,1.872,0,0,0-.571,1.392,1.847,1.847,0,0,0,.625,1.4,2.081,2.081,0,0,0,1.475.586,2.057,2.057,0,0,0,1.489-.551,1.9,1.9,0,0,0,.571-1.431,1.8,1.8,0,0,0-.63-1.382A2.193,2.193,0,0,0,106.672,3698.881Z" fill="#fff"/><path d="M110.891,3709.488l-.885-.163a10.362,10.362,0,0,1,.81,1.208,2.143,2.143,0,0,1,.25,1.032,1.937,1.937,0,0,1-.747,1.589,3.068,3.068,0,0,1-1.986.6,3.8,3.8,0,0,1-.665-.049l-5.039-.752v-2.381l4.775.723a4.626,4.626,0,0,0,.684.039q1.122,0,1.123-.9a1.184,1.184,0,0,0-.532-.956,2.987,2.987,0,0,0-1.391-.533l-4.659-.7v-2.41l8.262,1.24Z" fill="#fff"/></g></svg>