<svg xmlns="http://www.w3.org/2000/svg" width="86.68" height="13.017" viewBox="0 0 86.68 13.017"><g transform="translate(-3480.203 115.451) rotate(-90)"><path d="M115.451,3482.088v2.636l-10.547-1.532v4.238l-2.275-.323v-6.9Z" fill="#fff"/><path d="M109.826,3495.252l1.065.154v2.4l-8.262-1.221v-2.379l.859.125a3.965,3.965,0,0,1-1.015-2.542,2.861,2.861,0,0,1,1.064-2.274,4.018,4.018,0,0,1,2.695-.905,5.277,5.277,0,0,1,3.428,1.138,3.438,3.438,0,0,1,1.406,2.76A3.969,3.969,0,0,1,109.826,3495.252Zm-3.379-4.221a1.963,1.963,0,0,0-1.347.448,1.532,1.532,0,0,0-.508,1.209,1.947,1.947,0,0,0,.7,1.511,2.524,2.524,0,0,0,1.738.624,1.882,1.882,0,0,0,1.348-.521,1.7,1.7,0,0,0,.547-1.282,1.755,1.755,0,0,0-.7-1.423A2.747,2.747,0,0,0,106.447,3491.031Z" fill="#fff"/><path d="M113.85,3500.33v2.378l-2.959-.433v1.112l-2.383-.343v-1.077l-5.879-.9v-2.378l5.879.84v-.9l2.383.344v.922Z" fill="#fff"/><path d="M106.193,3512.02v-5.684q-1.787.224-1.787,1.777a2.24,2.24,0,0,0,1.006,1.826l-.879,1.7a4.852,4.852,0,0,1-2.06-3.838,3.928,3.928,0,0,1,1.123-2.9,3.877,3.877,0,0,1,2.871-1.128,4.546,4.546,0,0,1,3.247,1.285,4.084,4.084,0,0,1,1.352,3.071,3.6,3.6,0,0,1-1.211,2.856A5.335,5.335,0,0,1,106.193,3512.02Zm1.661-5.567v3.379a1.417,1.417,0,0,0,1.337-1.611A1.825,1.825,0,0,0,107.854,3506.453Z" fill="#fff"/><path d="M109.865,3518.23l-1.24-1.22a1.949,1.949,0,0,0,.645-1.221.854.854,0,0,0-.2-.522.589.589,0,0,0-.489-.259.945.945,0,0,0-.679.267,4.174,4.174,0,0,0-.674,1.075,3.369,3.369,0,0,1-.887,1.192,1.977,1.977,0,0,1-1.255.386,2.433,2.433,0,0,1-1.865-.879,3.042,3.042,0,0,1,.869-4.756l1.035,1.338a1.606,1.606,0,0,0-.879,1.279.989.989,0,0,0,.21.635.638.638,0,0,0,.515.264.765.765,0,0,0,.578-.283,5.657,5.657,0,0,0,.66-1.055,2.473,2.473,0,0,1,2.236-1.524,2.417,2.417,0,0,1,1.875.821,2.951,2.951,0,0,1,.742,2.06A3.175,3.175,0,0,1,109.865,3518.23Z" fill="#fff"/><path d="M113.85,3520.9v2.378l-2.959-.432v1.11l-2.383-.343v-1.077l-5.879-.9v-2.379l5.879.84v-.9l2.383.344v.923Z" fill="#fff"/><path d="M110.891,3533.246l-.885-.163a10.26,10.26,0,0,1,.81,1.208,2.141,2.141,0,0,1,.25,1.032,1.939,1.939,0,0,1-.747,1.589,3.074,3.074,0,0,1-1.986.6,3.8,3.8,0,0,1-.665-.049l-5.039-.752v-2.381l4.775.723a4.586,4.586,0,0,0,.684.039q1.122,0,1.123-.9a1.183,1.183,0,0,0-.532-.955,2.987,2.987,0,0,0-1.391-.533l-4.659-.7v-2.41l8.262,1.24Z" fill="#fff"/><path d="M106.193,3546.724v-5.684q-1.787.223-1.787,1.777a2.244,2.244,0,0,0,1.006,1.827l-.879,1.7a4.852,4.852,0,0,1-2.06-3.838,3.928,3.928,0,0,1,1.123-2.9,3.877,3.877,0,0,1,2.871-1.128,4.546,4.546,0,0,1,3.247,1.285,4.085,4.085,0,0,1,1.352,3.071,3.6,3.6,0,0,1-1.211,2.856A5.337,5.337,0,0,1,106.193,3546.724Zm1.661-5.567v3.379a1.417,1.417,0,0,0,1.337-1.611A1.824,1.824,0,0,0,107.854,3541.157Z" fill="#fff"/><path d="M110.891,3547.477v2.2l-4.522,1.2,4.522,2.686v1.835l-4.522,1.182,4.522,2.656v2.325l-8.262-4.844v-1.338l5.078-1.357-5.078-2.979v-1.406Z" fill="#fff"/><path d="M109.865,3566.883l-1.24-1.221a1.948,1.948,0,0,0,.645-1.221.861.861,0,0,0-.2-.522.592.592,0,0,0-.489-.259.943.943,0,0,0-.679.269,4.126,4.126,0,0,0-.674,1.074,3.355,3.355,0,0,1-.887,1.191,1.972,1.972,0,0,1-1.255.386,2.433,2.433,0,0,1-1.865-.879,3.041,3.041,0,0,1,.869-4.756l1.035,1.338a1.611,1.611,0,0,0-.879,1.28.984.984,0,0,0,.21.634.638.638,0,0,0,.515.264.764.764,0,0,0,.578-.282,5.648,5.648,0,0,0,.66-1.056,2.472,2.472,0,0,1,2.236-1.523,2.417,2.417,0,0,1,1.875.82,2.955,2.955,0,0,1,.742,2.06A3.175,3.175,0,0,1,109.865,3566.883Z" fill="#fff"/></g></svg>