<svg xmlns="http://www.w3.org/2000/svg" width="442.167" height="47.398" viewBox="0 0 442.167 47.398"><g transform="translate(-377.386 -4334.586)"><path d="M402.09,4365.288a1.3,1.3,0,0,0-1.727-.092l-2.433,1.962a1.293,1.293,0,0,1-1.645-.018,33.894,33.894,0,0,1-8.041-8.042,1.293,1.293,0,0,1-.018-1.645l1.961-2.432a1.293,1.293,0,0,0-.092-1.727l-4.658-4.657a1.3,1.3,0,0,0-1.747-.076l-5.842,4.907a1.29,1.29,0,0,0-.308,1.6s.785,1.6,1.515,2.831a57.938,57.938,0,0,0,18.43,18.429c1.227.729,2.83,1.516,2.83,1.516a1.3,1.3,0,0,0,1.6-.309l4.907-5.843a1.294,1.294,0,0,0-.076-1.746Z" fill="#00803e"/><path d="M403.238,4359.042l1.939-.308a10.286,10.286,0,0,0-8.527-8.527l-.308,1.938a8.328,8.328,0,0,1,6.9,6.9Z" fill="#00803e"/><path d="M411.037,4344.348A22.545,22.545,0,0,0,398.578,4338l-.3,1.939a20.668,20.668,0,0,1,17.172,17.172l1.941-.306A22.552,22.552,0,0,0,411.037,4344.348Z" fill="#00803e"/><path d="M397.613,4344.1l-.3,1.941a14.466,14.466,0,0,1,12.037,12.037l1.94-.306a16.429,16.429,0,0,0-13.673-13.672Z" fill="#00803e"/><path d="M458.834,4358.1c0,16.98-5.159,23.879-14.519,23.879-9.42,0-14.339-6.779-14.339-23.758s5.219-23.64,14.459-23.64S458.834,4341.186,458.834,4358.1Zm-21.119.06c0,13.5,1.86,17.88,6.6,17.88,4.86,0,6.78-4.441,6.78-17.88,0-13.5-1.86-17.639-6.66-17.639C439.755,4340.526,437.715,4344.6,437.715,4358.165Z"/><path d="M492.494,4340.706c-7.619,12.3-11.339,24.3-12.419,40.439h-8.46c1.32-16.02,6.3-27.9,13.619-39.659H464.655v-6.12h27.839Z"/><path d="M526.875,4340.706c-7.62,12.3-11.34,24.3-12.42,40.439h-8.46c1.32-16.02,6.3-27.9,13.62-39.659H499.036v-6.12h27.839Z"/><path d="M552.015,4365.9h-17.52v-5.88h17.52Z"/><path d="M585.554,4341.366H567.435l-.36,9.239c-.06,1.38-.18,3-.36,4.321a9.279,9.279,0,0,1,7.86-3.96c7.559,0,12.9,5.939,12.9,15,0,9.66-6,16.019-14.64,16.019-7.2,0-12.3-3.24-13.919-9.96l7.32-2.219c.84,4.44,3.18,6.36,6.539,6.36,4.32,0,7.02-3.721,7.02-10.08,0-5.939-2.46-9.3-6.659-9.3-3.06,0-5.46,1.861-6.48,5.16l-6.24-.9.9-25.679h24.239Z"/><path d="M621.434,4340.706c-7.62,12.3-11.34,24.3-12.419,40.439h-8.46c1.32-16.02,6.3-27.9,13.619-39.659H593.595v-6.12h27.839Z"/><path d="M651.374,4365.125h5.7v5.64h-5.7v10.38h-6.9v-10.38H627.015v-5.28l14.88-30.419h9.479Zm-6.9-10.079c0-4.86.18-9.42.36-14.04h-.84c-1.5,3.96-3.24,7.979-5.1,12l-5.64,12.119h11.219Z"/><path d="M680.954,4365.9H663.435v-5.88h17.519Z"/><path d="M717.073,4369.265c0,7.62-5.819,12.719-14.759,12.719-9.06,0-14.819-4.74-14.819-12.479,0-5.28,2.759-8.4,8.879-11.4-5.7-2.94-7.8-6.6-7.8-11.7,0-6.6,5.459-11.82,13.679-11.82,8.1,0,13.8,4.8,13.8,11.58,0,4.92-2.64,8.22-8.04,10.439C714.613,4359.726,717.073,4363.325,717.073,4369.265Zm-16.139-8.88c-4.26,2.341-6.3,4.8-6.3,8.64,0,4.44,2.94,7.44,7.62,7.44,4.74,0,7.68-2.641,7.68-6.96,0-3.6-1.74-5.64-7.26-8.279Zm2.64-5.94c4.02-2.1,5.4-4.439,5.4-7.979,0-3.9-2.88-6.36-6.72-6.36-3.9,0-6.6,2.34-6.6,6.24,0,3.12,1.5,5.1,6.24,7.32Z"/><path d="M745.934,4365.125h5.7v5.64h-5.7v10.38h-6.9v-10.38H721.575v-5.28l14.879-30.419h9.48Zm-6.9-10.079c0-4.86.18-9.42.36-14.04h-.84c-1.5,3.96-3.24,7.979-5.1,12l-5.64,12.119h11.22Z"/><path d="M780.313,4365.125h5.7v5.64h-5.7v10.38h-6.9v-10.38H755.955v-5.28l14.879-30.419h9.479Zm-6.9-10.079c0-4.86.18-9.42.359-14.04h-.839c-1.5,3.96-3.24,7.979-5.1,12l-5.64,12.119h11.22Z"/><path d="M817.633,4341.366H799.514l-.36,9.239c-.06,1.38-.18,3-.36,4.321a9.279,9.279,0,0,1,7.86-3.96c7.559,0,12.9,5.939,12.9,15,0,9.66-6,16.019-14.639,16.019-7.2,0-12.3-3.24-13.92-9.96l7.32-2.219c.84,4.44,3.18,6.36,6.54,6.36,4.319,0,7.02-3.721,7.02-10.08,0-5.939-2.46-9.3-6.66-9.3-3.06,0-5.46,1.861-6.48,5.16l-6.24-.9.9-25.679h24.239Z"/></g></svg>