<svg xmlns="http://www.w3.org/2000/svg" width="352.683" height="13.006" viewBox="0 0 352.683 13.006"><g transform="translate(-424.788 -5214.19)"><path d="M429.408,5221.4v.616a2.212,2.212,0,0,1-.175.875,2.391,2.391,0,0,1-.483.735,2.306,2.306,0,0,1-.72.511,2.1,2.1,0,0,1-.89.189,3.219,3.219,0,0,1-.826-.111,1.952,1.952,0,0,1-.756-.393,2.166,2.166,0,0,1-.553-.72,2.565,2.565,0,0,1-.217-1.127v-5.489a2.406,2.406,0,0,1,.169-.91,2.143,2.143,0,0,1,.475-.728,2.231,2.231,0,0,1,.735-.483,2.464,2.464,0,0,1,.946-.175,2.167,2.167,0,0,1,1.637.658,2.317,2.317,0,0,1,.483.763,2.572,2.572,0,0,1,.175.959v.561H427.98v-.477a1.156,1.156,0,0,0-.238-.728.771.771,0,0,0-.644-.308.729.729,0,0,0-.707.329,1.772,1.772,0,0,0-.174.833v5.1a1.318,1.318,0,0,0,.189.728.741.741,0,0,0,.678.294,1.06,1.06,0,0,0,.3-.048.906.906,0,0,0,.3-.162.848.848,0,0,0,.209-.307,1.251,1.251,0,0,0,.084-.49v-.491Z" fill="#fff"/><path d="M430.4,5219.524a5.279,5.279,0,0,1,.056-.8,1.9,1.9,0,0,1,.931-1.387,2.474,2.474,0,0,1,2.282,0,1.9,1.9,0,0,1,.931,1.387,5.279,5.279,0,0,1,.056.8v2.338a5.308,5.308,0,0,1-.056.8,1.894,1.894,0,0,1-.931,1.387,2.47,2.47,0,0,1-2.282,0,1.894,1.894,0,0,1-.931-1.387,5.308,5.308,0,0,1-.056-.8Zm1.428,2.562a.862.862,0,0,0,.189.609.744.744,0,0,0,1.022,0,.862.862,0,0,0,.189-.609V5219.3a.866.866,0,0,0-.189-.61.744.744,0,0,0-1.022,0,.866.866,0,0,0-.189.61Z" fill="#fff"/><path d="M435.666,5227.112v-9.967h1.428v.643a3.547,3.547,0,0,1,.546-.518,1.345,1.345,0,0,1,.812-.209,1.3,1.3,0,0,1,1.246.671,1.9,1.9,0,0,1,.182.588,6.27,6.27,0,0,1,.056.938v2.7a10.721,10.721,0,0,1-.042,1.134,1.362,1.362,0,0,1-.644,1.051,1.5,1.5,0,0,1-.812.181,1.466,1.466,0,0,1-.749-.189,1.718,1.718,0,0,1-.567-.539h-.028v3.514Zm2.842-7.658a1.3,1.3,0,0,0-.168-.7.584.584,0,0,0-.532-.266.633.633,0,0,0-.518.245.993.993,0,0,0-.2.637v2.759a.781.781,0,0,0,.2.553.673.673,0,0,0,.511.216.585.585,0,0,0,.553-.252,1.141,1.141,0,0,0,.147-.587Z" fill="#fff"/><path d="M440.535,5217.145h1.512l.98,4.423h.028l.966-4.423h1.47l-2.044,8.33a2.4,2.4,0,0,1-.315.783,1.949,1.949,0,0,1-.469.5,1.622,1.622,0,0,1-.567.273,2.524,2.524,0,0,1-.623.077h-.392v-1.344h.322a1.069,1.069,0,0,0,.364-.055.592.592,0,0,0,.28-.253,2.416,2.416,0,0,0,.21-.553q.1-.357.224-.987Z" fill="#fff"/><path d="M446.23,5224.242v-7.1h1.429v.755a4.37,4.37,0,0,1,.854-.616,2.176,2.176,0,0,1,1.036-.223v1.511a1.166,1.166,0,0,0-.434-.084,1.714,1.714,0,0,0-.483.077,1.263,1.263,0,0,0-.469.259,1.325,1.325,0,0,0-.364.477,1.669,1.669,0,0,0-.14.727v4.214Z" fill="#fff"/><path d="M450.288,5215.7v-1.428h1.428v1.428Zm0,8.54v-7.1h1.428v7.1Z" fill="#fff"/><path d="M454.25,5225.068a.8.8,0,0,0,.2.476.684.684,0,0,0,.553.224.577.577,0,0,0,.5-.217.935.935,0,0,0,.154-.553v-1.4h-.028a1.718,1.718,0,0,1-.567.539,1.5,1.5,0,0,1-.763.189,1.28,1.28,0,0,1-1.246-.672,1.876,1.876,0,0,1-.182-.588,6.114,6.114,0,0,1-.056-.937v-2.7a10.95,10.95,0,0,1,.042-1.134,1.353,1.353,0,0,1,.658-1.05,1.422,1.422,0,0,1,.8-.181,1.628,1.628,0,0,1,.455.055,1.377,1.377,0,0,1,.343.154,1.512,1.512,0,0,1,.28.231c.084.089.172.185.266.287v-.643h1.428v7.965a2.415,2.415,0,0,1-.119.736,1.822,1.822,0,0,1-.385.664,2,2,0,0,1-.672.5,2.29,2.29,0,0,1-.966.188,2.353,2.353,0,0,1-.672-.1,1.769,1.769,0,0,1-.644-.358,1.984,1.984,0,0,1-.525-.636,2.8,2.8,0,0,1-.287-1.03Zm0-3.009a1.141,1.141,0,0,0,.147.587.585.585,0,0,0,.553.252.673.673,0,0,0,.511-.216.781.781,0,0,0,.2-.553v-2.759a.993.993,0,0,0-.2-.637.633.633,0,0,0-.518-.245.584.584,0,0,0-.532.266,1.3,1.3,0,0,0-.168.7Z" fill="#fff"/><path d="M458.2,5224.242v-9.968h1.428v3.556h.028a2.015,2.015,0,0,1,.539-.553,1.4,1.4,0,0,1,.805-.216,1.645,1.645,0,0,1,.532.09,1.241,1.241,0,0,1,.476.3,1.506,1.506,0,0,1,.336.539,2.264,2.264,0,0,1,.126.806v5.445h-1.428v-4.914a.94.94,0,0,0-.182-.615.628.628,0,0,0-.518-.225.6.6,0,0,0-.56.252,1.414,1.414,0,0,0-.154.729v4.773Z" fill="#fff"/><path d="M463.864,5217.145v-2.157h1.428v2.157h.882v1.119h-.882v3.934a1.248,1.248,0,0,0,.049.392.389.389,0,0,0,.161.211.607.607,0,0,0,.273.084c.108.009.241.013.4.013v1.344h-.588a1.927,1.927,0,0,1-.819-.154,1.481,1.481,0,0,1-.525-.392,1.563,1.563,0,0,1-.287-.539,2.018,2.018,0,0,1-.091-.581v-4.312h-.714v-1.119Z" fill="#fff"/><path d="M466.921,5219.258a4.927,4.927,0,0,1,.4-1.974,5.069,5.069,0,0,1,2.7-2.694,5.072,5.072,0,0,1,3.948,0,5.069,5.069,0,0,1,2.695,2.694,5.082,5.082,0,0,1,0,3.948,5.086,5.086,0,0,1-2.695,2.7,5.095,5.095,0,0,1-3.948,0,5.086,5.086,0,0,1-2.7-2.7A4.924,4.924,0,0,1,466.921,5219.258Zm9.128,0a4.078,4.078,0,0,0-.322-1.61,4.265,4.265,0,0,0-.868-1.316,4.111,4.111,0,0,0-1.288-.889,3.967,3.967,0,0,0-3.164,0,4.1,4.1,0,0,0-1.288.889,4.247,4.247,0,0,0-.868,1.316,4.186,4.186,0,0,0,0,3.22,4.236,4.236,0,0,0,.868,1.316,4.084,4.084,0,0,0,1.288.889,3.972,3.972,0,0,0,3.164,0,4.1,4.1,0,0,0,1.288-.889,4.253,4.253,0,0,0,.868-1.316A4.076,4.076,0,0,0,476.049,5219.258Zm-1.4.967a2.738,2.738,0,0,1-.868,1.582,2.371,2.371,0,0,1-1.61.6,3.026,3.026,0,0,1-1.239-.245,2.761,2.761,0,0,1-.945-.679,2.9,2.9,0,0,1-.6-.987,3.541,3.541,0,0,1-.21-1.239,3.8,3.8,0,0,1,.2-1.267,2.906,2.906,0,0,1,.581-1,2.662,2.662,0,0,1,.917-.658,3.085,3.085,0,0,1,1.253-.238,2.622,2.622,0,0,1,1.666.547,2.338,2.338,0,0,1,.854,1.567h-.924a1.413,1.413,0,0,0-.546-.854,1.686,1.686,0,0,0-1.036-.336,1.844,1.844,0,0,0-1.442.644,2.384,2.384,0,0,0-.518,1.568,2.355,2.355,0,0,0,.546,1.554,1.834,1.834,0,0,0,.623.511,1.764,1.764,0,0,0,.819.189,1.534,1.534,0,0,0,1.029-.364,1.516,1.516,0,0,0,.525-.9Z" fill="#fff"/><path d="M480.668,5224.242V5222.9l2.576-4.858a1.776,1.776,0,0,0,.224-.637,6.713,6.713,0,0,0,.028-.678c0-.121,0-.25-.006-.385a.938.938,0,0,0-.078-.358.656.656,0,0,0-.21-.259.664.664,0,0,0-.406-.1.646.646,0,0,0-.7.714v.813h-1.428v-.785a2.11,2.11,0,0,1,.168-.84,2.166,2.166,0,0,1,.462-.686,2.122,2.122,0,0,1,.672-.469,2.03,2.03,0,0,1,.84-.175,2.093,2.093,0,0,1,.959.2,1.918,1.918,0,0,1,.665.553,2.409,2.409,0,0,1,.371.8,3.664,3.664,0,0,1,.119.952c0,.243,0,.447-.014.609a3.6,3.6,0,0,1-.056.469,2.041,2.041,0,0,1-.14.449c-.065.148-.154.331-.266.545l-2.1,4.046h2.576v1.428Z" fill="#fff"/><path d="M485.984,5216.332a2.17,2.17,0,0,1,.175-.9,2.106,2.106,0,0,1,.469-.672,2.025,2.025,0,0,1,.679-.426,2.264,2.264,0,0,1,1.61,0,2.025,2.025,0,0,1,.679.426,2.106,2.106,0,0,1,.469.672,2.17,2.17,0,0,1,.175.9v5.852a2.175,2.175,0,0,1-.175.9,2.1,2.1,0,0,1-.469.672,2.03,2.03,0,0,1-.679.428,2.292,2.292,0,0,1-1.61,0,2.03,2.03,0,0,1-.679-.428,2.1,2.1,0,0,1-.469-.672,2.175,2.175,0,0,1-.175-.9Zm1.428,5.852a.7.7,0,0,0,.2.511.727.727,0,0,0,1.008,0,.7.7,0,0,0,.2-.511v-5.852a.707.707,0,0,0-.2-.511.728.728,0,0,0-1.008,0,.707.707,0,0,0-.2.511Z" fill="#fff"/><path d="M491.3,5224.242V5222.9l2.576-4.858a1.778,1.778,0,0,0,.224-.637,6.723,6.723,0,0,0,.028-.678c0-.121,0-.25-.007-.385a.939.939,0,0,0-.077-.358.6.6,0,0,0-.616-.364.646.646,0,0,0-.7.714v.813H491.3v-.785a2.11,2.11,0,0,1,.168-.84,2.167,2.167,0,0,1,.462-.686,2.111,2.111,0,0,1,.672-.469,2.027,2.027,0,0,1,.84-.175,2.1,2.1,0,0,1,.959.2,1.919,1.919,0,0,1,.665.553,2.41,2.41,0,0,1,.371.8,3.709,3.709,0,0,1,.119.952c0,.243-.005.447-.014.609a3.772,3.772,0,0,1-.056.469,2.094,2.094,0,0,1-.14.449c-.065.148-.154.331-.266.545l-2.1,4.046h2.576v1.428Z" fill="#fff"/><path d="M498.177,5224.242v-8.456l-1.428,1.05v-1.512l1.428-1.05H499.6v9.968Z" fill="#fff"/><path d="M504.406,5216.626a2.556,2.556,0,0,1,.21-1.063,2.253,2.253,0,0,1,.56-.771,2.375,2.375,0,0,1,.763-.448,2.542,2.542,0,0,1,2.5.448,2.331,2.331,0,0,1,.546.771,2.525,2.525,0,0,1,.21,1.063v5.265a2.512,2.512,0,0,1-.21,1.078,2.2,2.2,0,0,1-.546.741,2.37,2.37,0,0,1-.777.462,2.479,2.479,0,0,1-1.722,0,2.232,2.232,0,0,1-.763-.462,2.133,2.133,0,0,1-.56-.741,2.542,2.542,0,0,1-.21-1.078Zm1.428,5.265a.946.946,0,0,0,.288.762,1.062,1.062,0,0,0,1.357,0,.949.949,0,0,0,.288-.762v-5.265a.951.951,0,0,0-.288-.763,1.063,1.063,0,0,0-1.357,0,.948.948,0,0,0-.288.763Z" fill="#fff"/><path d="M511.768,5222.2a.686.686,0,0,0,.189.519.7.7,0,0,0,.51.181.564.564,0,0,0,.539-.238,1.278,1.278,0,0,0,.161-.476H514.6a2.042,2.042,0,0,1-.575,1.512,1.984,1.984,0,0,1-.671.462,2.227,2.227,0,0,1-.883.168,2.2,2.2,0,0,1-1.14-.279,1.887,1.887,0,0,1-.931-1.387,5.177,5.177,0,0,1-.057-.8v-2.338a5.148,5.148,0,0,1,.057-.8,1.888,1.888,0,0,1,.931-1.387,2.191,2.191,0,0,1,1.14-.279,2.254,2.254,0,0,1,.889.168,1.974,1.974,0,0,1,.68.461,2.375,2.375,0,0,1,.56,1.638h-1.429a.917.917,0,0,0-.188-.637.744.744,0,0,0-1.022,0,.866.866,0,0,0-.189.61Z" fill="#fff"/><path d="M519.667,5221.232H516.84v.966a.686.686,0,0,0,.189.519.706.706,0,0,0,.511.181.565.565,0,0,0,.539-.238,1.3,1.3,0,0,0,.161-.476h1.427a2.045,2.045,0,0,1-.573,1.512,1.988,1.988,0,0,1-.672.462,2.226,2.226,0,0,1-.882.168,2.2,2.2,0,0,1-1.141-.279,1.894,1.894,0,0,1-.931-1.387,5.179,5.179,0,0,1-.056-.8v-2.338a5.151,5.151,0,0,1,.056-.8,1.9,1.9,0,0,1,.931-1.387,2.192,2.192,0,0,1,1.141-.279,2.258,2.258,0,0,1,.889.168,1.978,1.978,0,0,1,.679.461,2.3,2.3,0,0,1,.559,1.581Zm-2.827-1.12h1.4v-.811a.866.866,0,0,0-.189-.61.744.744,0,0,0-1.022,0,.866.866,0,0,0-.189.61Z" fill="#fff"/><path d="M523.466,5224.242v-.728h-.028a2.643,2.643,0,0,1-.567.6,1.347,1.347,0,0,1-.8.21,1.774,1.774,0,0,1-.511-.077,1.318,1.318,0,0,1-.5-.286,1.366,1.366,0,0,1-.385-.568,2.638,2.638,0,0,1-.147-.959,5.094,5.094,0,0,1,.1-1.057,1.69,1.69,0,0,1,.364-.763,1.509,1.509,0,0,1,.686-.44,3.482,3.482,0,0,1,1.106-.148h.154a.833.833,0,0,1,.154.014.819.819,0,0,0,.168.015,1.805,1.805,0,0,1,.21.013v-.742a1.081,1.081,0,0,0-.154-.6.614.614,0,0,0-.56-.239.807.807,0,0,0-.511.182.862.862,0,0,0-.3.532h-1.386a2.282,2.282,0,0,1,.644-1.54,2.016,2.016,0,0,1,.672-.441,2.28,2.28,0,0,1,.882-.16,2.482,2.482,0,0,1,.84.139,1.922,1.922,0,0,1,.686.42,2.067,2.067,0,0,1,.448.7,2.632,2.632,0,0,1,.168.981v4.941Zm0-3.052a2.371,2.371,0,0,0-.392-.042,1.408,1.408,0,0,0-.791.217.874.874,0,0,0-.329.791,1.039,1.039,0,0,0,.2.658.651.651,0,0,0,.546.252.71.71,0,0,0,.567-.238,1.008,1.008,0,0,0,.2-.672Z" fill="#fff"/><path d="M525.934,5224.242v-7.1h1.428v.685h.028a2.015,2.015,0,0,1,.539-.553,1.392,1.392,0,0,1,.8-.216,1.654,1.654,0,0,1,.532.09,1.249,1.249,0,0,1,.476.3,1.505,1.505,0,0,1,.336.539,2.264,2.264,0,0,1,.126.806v5.445h-1.428v-4.914a.945.945,0,0,0-.182-.615.629.629,0,0,0-.518-.225.6.6,0,0,0-.56.252,1.4,1.4,0,0,0-.154.729v4.773Z" fill="#fff"/><path d="M533.983,5216.626a2.557,2.557,0,0,1,.21-1.063,2.254,2.254,0,0,1,.56-.771,2.38,2.38,0,0,1,.764-.448,2.545,2.545,0,0,1,2.5.448,2.359,2.359,0,0,1,.546.771,2.54,2.54,0,0,1,.209,1.063v5.265a2.527,2.527,0,0,1-.209,1.078,2.228,2.228,0,0,1-.546.741,2.385,2.385,0,0,1-.778.462,2.476,2.476,0,0,1-1.721,0,2.236,2.236,0,0,1-.764-.462,2.134,2.134,0,0,1-.56-.741,2.542,2.542,0,0,1-.21-1.078Zm1.429,5.265a.945.945,0,0,0,.287.762,1.063,1.063,0,0,0,1.358,0,.949.949,0,0,0,.287-.762v-5.265a.951.951,0,0,0-.287-.763,1.065,1.065,0,0,0-1.358,0,.947.947,0,0,0-.287.763Z" fill="#fff"/><path d="M540.231,5217.145v-2.157h1.429v2.157h.882v1.119h-.882v3.934a1.254,1.254,0,0,0,.048.392.391.391,0,0,0,.162.211.6.6,0,0,0,.273.084c.107.009.24.013.4.013v1.344h-.588a1.921,1.921,0,0,1-.819-.154,1.476,1.476,0,0,1-.526-.392,1.544,1.544,0,0,1-.286-.539,1.988,1.988,0,0,1-.092-.581v-4.312h-.713v-1.119Z" fill="#fff"/><path d="M545.962,5219.133a.713.713,0,0,0-.232-.547.75.75,0,0,0-.5-.182.64.64,0,0,0-.518.217.75.75,0,0,0-.182.5.824.824,0,0,0,.1.386.911.911,0,0,0,.5.342l.84.336a2.049,2.049,0,0,1,1.1.839,2.333,2.333,0,0,1,.3,1.163,2.151,2.151,0,0,1-.16.834,2.251,2.251,0,0,1-.441.678,1.988,1.988,0,0,1-.672.462,2.15,2.15,0,0,1-.854.168,2.053,2.053,0,0,1-1.456-.546,1.987,1.987,0,0,1-.476-.665,2.357,2.357,0,0,1-.2-.931h1.344a1.341,1.341,0,0,0,.2.546.619.619,0,0,0,.567.252.846.846,0,0,0,.553-.2.693.693,0,0,0,.245-.566.835.835,0,0,0-.154-.5,1.215,1.215,0,0,0-.56-.364l-.686-.252a2.336,2.336,0,0,1-1.057-.748,1.921,1.921,0,0,1-.386-1.211,2.07,2.07,0,0,1,.169-.834,2.015,2.015,0,0,1,.462-.664,1.865,1.865,0,0,1,.658-.428,2.211,2.211,0,0,1,.812-.146,2.058,2.058,0,0,1,.8.154,1.821,1.821,0,0,1,.637.433,2.093,2.093,0,0,1,.42.665,2.2,2.2,0,0,1,.154.82Z" fill="#fff"/><path d="M552.558,5217.145v7.1H551.13v-.685H551.1a2.03,2.03,0,0,1-.539.552,1.385,1.385,0,0,1-.8.217,1.625,1.625,0,0,1-.532-.091,1.225,1.225,0,0,1-.476-.3,1.51,1.51,0,0,1-.336-.539,2.257,2.257,0,0,1-.126-.805v-5.445h1.428v4.914a.948.948,0,0,0,.182.615.627.627,0,0,0,.518.224.6.6,0,0,0,.56-.252,1.4,1.4,0,0,0,.154-.728v-4.773Z" fill="#fff"/><path d="M557.752,5224.242v-4.214l-1.96-5.754H557.3l1.148,3.962h.028l1.148-3.962h1.512l-1.96,5.754v4.214Z" fill="#fff"/><path d="M561.19,5219.524a5.159,5.159,0,0,1,.056-.8,1.9,1.9,0,0,1,.931-1.387,2.474,2.474,0,0,1,2.282,0,1.9,1.9,0,0,1,.931,1.387,5.283,5.283,0,0,1,.056.8v2.338a5.313,5.313,0,0,1-.056.8,1.895,1.895,0,0,1-.931,1.387,2.47,2.47,0,0,1-2.282,0,1.895,1.895,0,0,1-.931-1.387,5.187,5.187,0,0,1-.056-.8Zm1.428,2.562a.862.862,0,0,0,.189.609.744.744,0,0,0,1.022,0,.862.862,0,0,0,.189-.609V5219.3a.865.865,0,0,0-.189-.61.744.744,0,0,0-1.022,0,.866.866,0,0,0-.189.61Z" fill="#fff"/><path d="M570.717,5217.145v7.1H569.29v-.685h-.029a2.016,2.016,0,0,1-.539.552,1.385,1.385,0,0,1-.8.217,1.63,1.63,0,0,1-.532-.091,1.225,1.225,0,0,1-.476-.3,1.524,1.524,0,0,1-.336-.539,2.257,2.257,0,0,1-.126-.805v-5.445h1.428v4.914a.943.943,0,0,0,.183.615.625.625,0,0,0,.517.224.6.6,0,0,0,.56-.252,1.4,1.4,0,0,0,.155-.728v-4.773Z" fill="#fff"/><path d="M571.826,5224.242v-7.1h1.428v.685h.028a2.017,2.017,0,0,1,.539-.553,1.392,1.392,0,0,1,.8-.216,1.654,1.654,0,0,1,.532.09,1.248,1.248,0,0,1,.476.3,1.505,1.505,0,0,1,.336.539,2.262,2.262,0,0,1,.126.806v5.445h-1.428v-4.914a.946.946,0,0,0-.182-.615.629.629,0,0,0-.518-.225.6.6,0,0,0-.56.252,1.4,1.4,0,0,0-.154.729v4.773Z" fill="#fff"/><path d="M578.616,5225.068a.79.79,0,0,0,.2.476.684.684,0,0,0,.553.224.574.574,0,0,0,.5-.217.928.928,0,0,0,.155-.553v-1.4H580a1.705,1.705,0,0,1-.566.539,1.5,1.5,0,0,1-.764.189,1.279,1.279,0,0,1-1.245-.672,1.874,1.874,0,0,1-.182-.588,6.11,6.11,0,0,1-.056-.937v-2.7a11.329,11.329,0,0,1,.041-1.134,1.357,1.357,0,0,1,.659-1.05,1.422,1.422,0,0,1,.8-.181,1.628,1.628,0,0,1,.455.055,1.353,1.353,0,0,1,.342.154,1.484,1.484,0,0,1,.281.231c.084.089.172.185.266.287v-.643h1.428v7.965a2.387,2.387,0,0,1-.12.736,1.806,1.806,0,0,1-.384.664,2,2,0,0,1-.672.5,2.291,2.291,0,0,1-.967.188,2.353,2.353,0,0,1-.671-.1,1.769,1.769,0,0,1-.644-.358,1.985,1.985,0,0,1-.525-.636,2.8,2.8,0,0,1-.287-1.03Zm0-3.009a1.141,1.141,0,0,0,.147.587.584.584,0,0,0,.552.252.674.674,0,0,0,.512-.216.782.782,0,0,0,.2-.553v-2.759a.988.988,0,0,0-.2-.637.63.63,0,0,0-.518-.245.583.583,0,0,0-.531.266,1.29,1.29,0,0,0-.168.7Z" fill="#fff"/><path d="M584.677,5224.242l2.226-9.968h1.19l2.226,9.968h-1.427l-.421-2.142h-1.946l-.42,2.142Zm3.529-3.486-.7-3.611h-.027l-.7,3.611Z" fill="#fff"/><path d="M590.974,5214.274H592.4v7.966a.783.783,0,0,0,.147.553.926.926,0,0,0,.553.189v1.344a4.558,4.558,0,0,1-.882-.077,1.519,1.519,0,0,1-.672-.3,1.3,1.3,0,0,1-.427-.594,2.91,2.91,0,0,1-.147-1.016Z" fill="#fff"/><path d="M593.792,5214.274h1.429v7.966a.783.783,0,0,0,.147.553.92.92,0,0,0,.552.189v1.344a4.554,4.554,0,0,1-.881-.077,1.508,1.508,0,0,1-.672-.3,1.309,1.309,0,0,1-.428-.594,2.931,2.931,0,0,1-.147-1.016Z" fill="#fff"/><path d="M599.168,5224.242v-9.968h2.3q2.522,0,2.52,2.926a3.673,3.673,0,0,1-.273,1.5,2.108,2.108,0,0,1-.959.994l1.54,4.55h-1.511l-1.33-4.256H600.6v4.256Zm1.429-8.624v3.109h.812a1.44,1.44,0,0,0,.6-.106.815.815,0,0,0,.349-.3,1.36,1.36,0,0,0,.155-.482,5.287,5.287,0,0,0,0-1.33,1.333,1.333,0,0,0-.168-.5,1.14,1.14,0,0,0-1.009-.392Z" fill="#fff"/><path d="M605.192,5215.7v-1.428h1.429v1.428Zm0,8.54v-7.1h1.429v7.1Z" fill="#fff"/><path d="M609.155,5225.068a.79.79,0,0,0,.2.476.684.684,0,0,0,.553.224.577.577,0,0,0,.5-.217.935.935,0,0,0,.154-.553v-1.4h-.028a1.718,1.718,0,0,1-.567.539,1.5,1.5,0,0,1-.764.189,1.279,1.279,0,0,1-1.245-.672,1.874,1.874,0,0,1-.182-.588,6.11,6.11,0,0,1-.056-.937v-2.7a10.97,10.97,0,0,1,.042-1.134,1.353,1.353,0,0,1,.658-1.05,1.422,1.422,0,0,1,.8-.181,1.628,1.628,0,0,1,.455.055,1.353,1.353,0,0,1,.342.154,1.484,1.484,0,0,1,.281.231c.084.089.172.185.266.287v-.643H612v7.965a2.388,2.388,0,0,1-.12.736,1.806,1.806,0,0,1-.384.664,2,2,0,0,1-.672.5,2.291,2.291,0,0,1-.967.188,2.353,2.353,0,0,1-.671-.1,1.769,1.769,0,0,1-.644-.358,1.985,1.985,0,0,1-.525-.636,2.8,2.8,0,0,1-.287-1.03Zm0-3.009a1.141,1.141,0,0,0,.147.587.584.584,0,0,0,.552.252.674.674,0,0,0,.512-.216.782.782,0,0,0,.2-.553v-2.759a.993.993,0,0,0-.2-.637.633.633,0,0,0-.519-.245.583.583,0,0,0-.531.266,1.29,1.29,0,0,0-.168.7Z" fill="#fff"/><path d="M613.1,5224.242v-9.968h1.428v3.556h.028a2.015,2.015,0,0,1,.539-.553,1.392,1.392,0,0,1,.8-.216,1.654,1.654,0,0,1,.532.09,1.249,1.249,0,0,1,.476.3,1.505,1.505,0,0,1,.336.539,2.264,2.264,0,0,1,.126.806v5.445h-1.428v-4.914a.946.946,0,0,0-.182-.615.629.629,0,0,0-.518-.225.6.6,0,0,0-.56.252,1.4,1.4,0,0,0-.154.729v4.773Z" fill="#fff"/><path d="M618.77,5217.145v-2.157H620.2v2.157h.882v1.119H620.2v3.934a1.219,1.219,0,0,0,.049.392.384.384,0,0,0,.161.211.6.6,0,0,0,.273.084c.107.009.24.013.4.013v1.344h-.588a1.921,1.921,0,0,1-.819-.154,1.477,1.477,0,0,1-.526-.392,1.545,1.545,0,0,1-.286-.539,1.983,1.983,0,0,1-.091-.581v-4.312h-.714v-1.119Z" fill="#fff"/><path d="M624.5,5219.133a.713.713,0,0,0-.231-.547.755.755,0,0,0-.5-.182.64.64,0,0,0-.518.217.75.75,0,0,0-.182.5.825.825,0,0,0,.1.386.911.911,0,0,0,.5.342l.84.336a2.048,2.048,0,0,1,1.1.839,2.334,2.334,0,0,1,.3,1.163,2.152,2.152,0,0,1-.161.834,2.213,2.213,0,0,1-.441.678,1.988,1.988,0,0,1-.672.462,2.151,2.151,0,0,1-.854.168,2.053,2.053,0,0,1-1.456-.546,1.985,1.985,0,0,1-.476-.665,2.356,2.356,0,0,1-.2-.931H623a1.34,1.34,0,0,0,.2.546.619.619,0,0,0,.567.252.846.846,0,0,0,.553-.2.693.693,0,0,0,.245-.566.828.828,0,0,0-.154-.5,1.216,1.216,0,0,0-.56-.364l-.686-.252a2.336,2.336,0,0,1-1.057-.748,1.921,1.921,0,0,1-.385-1.211,2.07,2.07,0,0,1,.168-.834,2.015,2.015,0,0,1,.462-.664,1.866,1.866,0,0,1,.658-.428,2.219,2.219,0,0,1,.812-.146,2.058,2.058,0,0,1,.8.154,1.821,1.821,0,0,1,.637.433,2.1,2.1,0,0,1,.42.665,2.2,2.2,0,0,1,.154.82Z" fill="#fff"/><path d="M629.525,5224.242v-9.968h2.3q2.52,0,2.52,2.926a3.69,3.69,0,0,1-.273,1.5,2.108,2.108,0,0,1-.959.994l1.54,4.55h-1.511l-1.33-4.256h-.854v4.256Zm1.429-8.624v3.109h.812a1.44,1.44,0,0,0,.6-.106.815.815,0,0,0,.349-.3,1.36,1.36,0,0,0,.155-.482,5.287,5.287,0,0,0,0-1.33,1.333,1.333,0,0,0-.168-.5,1.14,1.14,0,0,0-1.009-.392Z" fill="#fff"/><path d="M639.51,5221.232h-2.828v.966a.686.686,0,0,0,.189.519.706.706,0,0,0,.511.181.565.565,0,0,0,.539-.238,1.278,1.278,0,0,0,.161-.476h1.428a2.045,2.045,0,0,1-.574,1.512,1.987,1.987,0,0,1-.672.462,2.439,2.439,0,0,1-2.023-.111,1.895,1.895,0,0,1-.931-1.387,5.18,5.18,0,0,1-.056-.8v-2.338a5.151,5.151,0,0,1,.056-.8,1.9,1.9,0,0,1,.931-1.387,2.195,2.195,0,0,1,1.141-.279,2.258,2.258,0,0,1,.889.168,1.979,1.979,0,0,1,.679.461,2.3,2.3,0,0,1,.56,1.581Zm-2.828-1.12h1.4v-.811a.866.866,0,0,0-.189-.61.744.744,0,0,0-1.022,0,.866.866,0,0,0-.189.61Z" fill="#fff"/><path d="M643.2,5219.133a.714.714,0,0,0-.232-.547.75.75,0,0,0-.5-.182.639.639,0,0,0-.518.217.751.751,0,0,0-.183.5.826.826,0,0,0,.1.386.9.9,0,0,0,.5.342l.84.336a2.041,2.041,0,0,1,1.1.839,2.323,2.323,0,0,1,.3,1.163,2.169,2.169,0,0,1-.16.834,2.25,2.25,0,0,1-.441.678,1.992,1.992,0,0,1-.673.462,2.147,2.147,0,0,1-.854.168,2.055,2.055,0,0,1-1.456-.546,1.984,1.984,0,0,1-.475-.665,2.373,2.373,0,0,1-.2-.931h1.345a1.339,1.339,0,0,0,.2.546.622.622,0,0,0,.568.252.842.842,0,0,0,.552-.2.693.693,0,0,0,.245-.566.834.834,0,0,0-.153-.5,1.215,1.215,0,0,0-.56-.364l-.686-.252a2.339,2.339,0,0,1-1.058-.748,1.926,1.926,0,0,1-.385-1.211,2.054,2.054,0,0,1,.169-.834,1.986,1.986,0,0,1,.462-.664,1.861,1.861,0,0,1,.657-.428,2.219,2.219,0,0,1,.812-.146,2.051,2.051,0,0,1,.8.154,1.824,1.824,0,0,1,.638.433,2.111,2.111,0,0,1,.42.665,2.2,2.2,0,0,1,.153.82Z" fill="#fff"/><path d="M649.724,5221.232H646.9v.966a.686.686,0,0,0,.189.519.706.706,0,0,0,.511.181.564.564,0,0,0,.539-.238,1.279,1.279,0,0,0,.161-.476h1.428a2.041,2.041,0,0,1-.574,1.512,1.984,1.984,0,0,1-.671.462,2.228,2.228,0,0,1-.883.168,2.2,2.2,0,0,1-1.14-.279,1.948,1.948,0,0,1-.722-.742,1.968,1.968,0,0,1-.21-.645,5.313,5.313,0,0,1-.056-.8v-2.338a5.283,5.283,0,0,1,.056-.8,1.894,1.894,0,0,1,.932-1.387,2.189,2.189,0,0,1,1.14-.279,2.254,2.254,0,0,1,.889.168,1.983,1.983,0,0,1,.68.461,2.3,2.3,0,0,1,.559,1.581Zm-2.828-1.12h1.4v-.811a.866.866,0,0,0-.189-.61.744.744,0,0,0-1.022,0,.865.865,0,0,0-.189.61Z" fill="#fff"/><path d="M650.725,5224.242v-7.1h1.428v.755a4.369,4.369,0,0,1,.854-.616,2.179,2.179,0,0,1,1.036-.223v1.511a1.166,1.166,0,0,0-.434-.084,1.725,1.725,0,0,0-.483.077,1.278,1.278,0,0,0-.469.259,1.336,1.336,0,0,0-.364.477,1.684,1.684,0,0,0-.14.727v4.214Z" fill="#fff"/><path d="M659.438,5217.145l-1.847,7.1h-1.26l-1.849-7.1h1.513l.952,4.535h.028l.952-4.535Z" fill="#fff"/><path d="M664.182,5221.232h-2.828v.966a.686.686,0,0,0,.189.519.706.706,0,0,0,.511.181.565.565,0,0,0,.539-.238,1.279,1.279,0,0,0,.161-.476h1.428a2.045,2.045,0,0,1-.574,1.512,1.987,1.987,0,0,1-.672.462,2.439,2.439,0,0,1-2.023-.111,1.895,1.895,0,0,1-.931-1.387,5.18,5.18,0,0,1-.056-.8v-2.338a5.151,5.151,0,0,1,.056-.8,1.9,1.9,0,0,1,.931-1.387,2.195,2.195,0,0,1,1.141-.279,2.258,2.258,0,0,1,.889.168,1.979,1.979,0,0,1,.679.461,2.3,2.3,0,0,1,.56,1.581Zm-2.828-1.12h1.4v-.811a.866.866,0,0,0-.189-.61.744.744,0,0,0-1.022,0,.865.865,0,0,0-.189.61Z" fill="#fff"/><path d="M668,5224.242v-.644c-.094.1-.182.2-.266.287a1.41,1.41,0,0,1-.28.231,1.346,1.346,0,0,1-.35.154,1.666,1.666,0,0,1-.462.056,1.28,1.28,0,0,1-1.246-.672,1.876,1.876,0,0,1-.182-.588,6.119,6.119,0,0,1-.056-.937v-2.7a10.952,10.952,0,0,1,.042-1.134,1.353,1.353,0,0,1,.658-1.05,1.422,1.422,0,0,1,.8-.181,1.476,1.476,0,0,1,.749.188,1.738,1.738,0,0,1,.567.539H668v-3.514h1.428v9.968Zm-1.414-2.31a1.3,1.3,0,0,0,.168.7.582.582,0,0,0,.532.265.633.633,0,0,0,.518-.245.986.986,0,0,0,.2-.637v-2.758a.779.779,0,0,0-.2-.553.672.672,0,0,0-.511-.217.584.584,0,0,0-.553.252,1.145,1.145,0,0,0-.147.588Z" fill="#fff"/><path d="M670.592,5224.242v-1.428h1.429v1.428Z" fill="#fff"/><path d="M678.488,5224.242v-9.968h2.142a3.208,3.208,0,0,1,1.037.154,1.993,1.993,0,0,1,.812.547,2.124,2.124,0,0,1,.5.916,5.7,5.7,0,0,1,.141,1.422,6.943,6.943,0,0,1-.078,1.133,2.367,2.367,0,0,1-.329.868,2.077,2.077,0,0,1-.783.763,2.638,2.638,0,0,1-1.288.273h-.728v3.892Zm1.429-8.624v3.388h.686a1.455,1.455,0,0,0,.671-.125.792.792,0,0,0,.351-.351,1.283,1.283,0,0,0,.132-.518q.021-.308.021-.686c0-.233-.005-.455-.013-.665a1.453,1.453,0,0,0-.127-.553.792.792,0,0,0-.336-.364,1.333,1.333,0,0,0-.644-.126Z" fill="#fff"/><path d="M684.125,5224.242v-7.1h1.429v.755a4.34,4.34,0,0,1,.854-.616,2.177,2.177,0,0,1,1.035-.223v1.511a1.157,1.157,0,0,0-.433-.084,1.726,1.726,0,0,0-.484.077,1.274,1.274,0,0,0-.468.259,1.339,1.339,0,0,0-.365.477,1.684,1.684,0,0,0-.139.727v4.214Z" fill="#fff"/><path d="M688.1,5219.524a5.275,5.275,0,0,1,.056-.8,1.9,1.9,0,0,1,.931-1.387,2.474,2.474,0,0,1,2.282,0,1.9,1.9,0,0,1,.931,1.387,5.283,5.283,0,0,1,.056.8v2.338a5.313,5.313,0,0,1-.056.8,1.895,1.895,0,0,1-.931,1.387,2.47,2.47,0,0,1-2.282,0,1.894,1.894,0,0,1-.931-1.387,5.3,5.3,0,0,1-.056-.8Zm1.428,2.562a.862.862,0,0,0,.189.609.744.744,0,0,0,1.022,0,.862.862,0,0,0,.189-.609V5219.3a.865.865,0,0,0-.189-.61.744.744,0,0,0-1.022,0,.866.866,0,0,0-.189.61Z" fill="#fff"/><path d="M696.187,5224.242v-.644c-.094.1-.182.2-.266.287a1.412,1.412,0,0,1-.28.231,1.346,1.346,0,0,1-.35.154,1.667,1.667,0,0,1-.462.056,1.28,1.28,0,0,1-1.246-.672,1.876,1.876,0,0,1-.182-.588,6.11,6.11,0,0,1-.056-.937v-2.7a10.948,10.948,0,0,1,.042-1.134,1.353,1.353,0,0,1,.658-1.05,1.422,1.422,0,0,1,.8-.181,1.475,1.475,0,0,1,.749.188,1.738,1.738,0,0,1,.567.539h.028v-3.514h1.428v9.968Zm-1.414-2.31a1.3,1.3,0,0,0,.168.7.582.582,0,0,0,.532.265.632.632,0,0,0,.518-.245.986.986,0,0,0,.2-.637v-2.758a.779.779,0,0,0-.2-.553.673.673,0,0,0-.511-.217.584.584,0,0,0-.553.252,1.145,1.145,0,0,0-.147.588Z" fill="#fff"/><path d="M702.99,5217.145v7.1h-1.427v-.685h-.029a2.016,2.016,0,0,1-.539.552,1.385,1.385,0,0,1-.8.217,1.625,1.625,0,0,1-.532-.091,1.225,1.225,0,0,1-.476-.3,1.51,1.51,0,0,1-.336-.539,2.257,2.257,0,0,1-.126-.805v-5.445h1.428v4.914a.943.943,0,0,0,.183.615.625.625,0,0,0,.517.224.6.6,0,0,0,.56-.252,1.4,1.4,0,0,0,.155-.728v-4.773Z" fill="#fff"/><path d="M705.536,5222.2a.686.686,0,0,0,.189.519.7.7,0,0,0,.51.181.563.563,0,0,0,.539-.238,1.28,1.28,0,0,0,.162-.476h1.428a2.045,2.045,0,0,1-.574,1.512,1.987,1.987,0,0,1-.672.462,2.227,2.227,0,0,1-.883.168,2.2,2.2,0,0,1-1.14-.279,1.895,1.895,0,0,1-.931-1.387,5.173,5.173,0,0,1-.057-.8v-2.338a5.145,5.145,0,0,1,.057-.8,1.9,1.9,0,0,1,.931-1.387,2.191,2.191,0,0,1,1.14-.279,2.263,2.263,0,0,1,.89.168,1.979,1.979,0,0,1,.679.461,2.375,2.375,0,0,1,.56,1.638h-1.428a.913.913,0,0,0-.189-.637.744.744,0,0,0-1.022,0,.866.866,0,0,0-.189.61Z" fill="#fff"/><path d="M713.435,5221.232h-2.828v.966a.686.686,0,0,0,.189.519.706.706,0,0,0,.511.181.564.564,0,0,0,.539-.238,1.279,1.279,0,0,0,.161-.476h1.428a2.041,2.041,0,0,1-.574,1.512,1.979,1.979,0,0,1-.672.462,2.437,2.437,0,0,1-2.022-.111,1.893,1.893,0,0,1-.932-1.387,5.313,5.313,0,0,1-.056-.8v-2.338a5.283,5.283,0,0,1,.056-.8,1.894,1.894,0,0,1,.932-1.387,2.189,2.189,0,0,1,1.14-.279,2.254,2.254,0,0,1,.889.168,1.979,1.979,0,0,1,.679.461,2.291,2.291,0,0,1,.56,1.581Zm-2.828-1.12h1.4v-.811a.866.866,0,0,0-.189-.61.744.744,0,0,0-1.022,0,.865.865,0,0,0-.189.61Z" fill="#fff"/><path d="M717.253,5224.242v-.644c-.094.1-.182.2-.266.287a1.41,1.41,0,0,1-.28.231,1.346,1.346,0,0,1-.35.154,1.666,1.666,0,0,1-.462.056,1.28,1.28,0,0,1-1.246-.672,1.877,1.877,0,0,1-.182-.588,6.119,6.119,0,0,1-.056-.937v-2.7a10.952,10.952,0,0,1,.042-1.134,1.353,1.353,0,0,1,.658-1.05,1.422,1.422,0,0,1,.8-.181,1.478,1.478,0,0,1,.749.188,1.738,1.738,0,0,1,.567.539h.028v-3.514h1.428v9.968Zm-1.414-2.31a1.3,1.3,0,0,0,.168.7.582.582,0,0,0,.532.265.633.633,0,0,0,.518-.245.986.986,0,0,0,.2-.637v-2.758a.779.779,0,0,0-.2-.553.672.672,0,0,0-.511-.217.584.584,0,0,0-.553.252,1.145,1.145,0,0,0-.147.588Z" fill="#fff"/><path d="M722.46,5224.242v-9.968h1.429v3.514h.028a1.725,1.725,0,0,1,.566-.539,1.481,1.481,0,0,1,.749-.188,1.508,1.508,0,0,1,.806.181,1.523,1.523,0,0,1,.468.462,1.39,1.39,0,0,1,.182.588,10.678,10.678,0,0,1,.042,1.134v2.7a6.119,6.119,0,0,1-.056.937,1.875,1.875,0,0,1-.181.588,1.3,1.3,0,0,1-1.246.672,1.338,1.338,0,0,1-.812-.21,3.413,3.413,0,0,1-.546-.518v.644Zm2.843-4.914a1.155,1.155,0,0,0-.147-.588.585.585,0,0,0-.553-.252.671.671,0,0,0-.511.217.775.775,0,0,0-.2.553v2.758a.991.991,0,0,0,.2.637.633.633,0,0,0,.519.245.584.584,0,0,0,.532-.265,1.3,1.3,0,0,0,.168-.7Z" fill="#fff"/><path d="M727.343,5217.145h1.512l.98,4.423h.028l.967-4.423H732.3l-2.044,8.33a2.4,2.4,0,0,1-.315.783,1.967,1.967,0,0,1-.469.5,1.623,1.623,0,0,1-.567.273,2.524,2.524,0,0,1-.623.077h-.391v-1.344h.321a1.066,1.066,0,0,0,.364-.055.592.592,0,0,0,.28-.253,2.416,2.416,0,0,0,.21-.553c.065-.238.141-.567.225-.987Z" fill="#fff"/><path d="M735.477,5217.145h1.428V5225a1.912,1.912,0,0,1-.658,1.582,2.564,2.564,0,0,1-1.666.532v-1.344a.831.831,0,0,0,.714-.266.871.871,0,0,0,.147-.4,4.752,4.752,0,0,0,.035-.637Zm0-1.443v-1.428h1.428v1.428Z" fill="#fff"/><path d="M742.18,5221.232h-2.827v.966a.686.686,0,0,0,.189.519.7.7,0,0,0,.51.181.564.564,0,0,0,.539-.238,1.279,1.279,0,0,0,.161-.476h1.428a2.041,2.041,0,0,1-.574,1.512,1.984,1.984,0,0,1-.671.462,2.228,2.228,0,0,1-.883.168,2.2,2.2,0,0,1-1.14-.279,1.948,1.948,0,0,1-.722-.742,1.968,1.968,0,0,1-.21-.645,5.313,5.313,0,0,1-.056-.8v-2.338a5.283,5.283,0,0,1,.056-.8,1.894,1.894,0,0,1,.932-1.387,2.189,2.189,0,0,1,1.14-.279,2.254,2.254,0,0,1,.889.168,1.973,1.973,0,0,1,.68.461,2.3,2.3,0,0,1,.559,1.581Zm-2.827-1.12h1.4v-.811a.865.865,0,0,0-.189-.61.743.743,0,0,0-1.021,0,.866.866,0,0,0-.189.61Z" fill="#fff"/><path d="M747.349,5221.232h-2.828v.966a.686.686,0,0,0,.189.519.706.706,0,0,0,.511.181.564.564,0,0,0,.539-.238,1.279,1.279,0,0,0,.161-.476h1.428a2.041,2.041,0,0,1-.574,1.512,1.984,1.984,0,0,1-.671.462,2.228,2.228,0,0,1-.883.168,2.2,2.2,0,0,1-1.14-.279,1.948,1.948,0,0,1-.722-.742,1.968,1.968,0,0,1-.21-.645,5.313,5.313,0,0,1-.056-.8v-2.338a5.283,5.283,0,0,1,.056-.8,1.894,1.894,0,0,1,.932-1.387,2.189,2.189,0,0,1,1.14-.279,2.254,2.254,0,0,1,.889.168,1.983,1.983,0,0,1,.68.461,2.3,2.3,0,0,1,.559,1.581Zm-2.828-1.12h1.4v-.811a.866.866,0,0,0-.189-.61.744.744,0,0,0-1.022,0,.865.865,0,0,0-.189.61Z" fill="#fff"/><path d="M748.35,5224.242v-7.1h1.428v.685h.028a2.03,2.03,0,0,1,.539-.553,1.392,1.392,0,0,1,.805-.216,1.645,1.645,0,0,1,.532.09,1.249,1.249,0,0,1,.476.3,1.507,1.507,0,0,1,.336.539,2.264,2.264,0,0,1,.126.806v5.445h-1.428v-4.914a.946.946,0,0,0-.182-.615.628.628,0,0,0-.518-.225.6.6,0,0,0-.56.252,1.414,1.414,0,0,0-.154.729v4.773Z" fill="#fff"/><path d="M755.14,5225.068a.8.8,0,0,0,.2.476.684.684,0,0,0,.553.224.577.577,0,0,0,.5-.217.935.935,0,0,0,.154-.553v-1.4h-.028a1.718,1.718,0,0,1-.567.539,1.5,1.5,0,0,1-.763.189,1.281,1.281,0,0,1-1.246-.672,1.876,1.876,0,0,1-.182-.588,6.11,6.11,0,0,1-.056-.937v-2.7a10.948,10.948,0,0,1,.042-1.134,1.353,1.353,0,0,1,.658-1.05,1.422,1.422,0,0,1,.8-.181,1.628,1.628,0,0,1,.455.055,1.376,1.376,0,0,1,.343.154,1.48,1.48,0,0,1,.28.231c.084.089.172.185.266.287v-.643h1.428v7.965a2.414,2.414,0,0,1-.119.736,1.807,1.807,0,0,1-.385.664,1.985,1.985,0,0,1-.672.5,2.29,2.29,0,0,1-.966.188,2.353,2.353,0,0,1-.672-.1,1.777,1.777,0,0,1-.644-.358,2.01,2.01,0,0,1-.525-.636,2.821,2.821,0,0,1-.287-1.03Zm0-3.009a1.142,1.142,0,0,0,.147.587.585.585,0,0,0,.553.252.671.671,0,0,0,.511-.216.781.781,0,0,0,.2-.553v-2.759a.987.987,0,0,0-.2-.637.631.631,0,0,0-.518-.245.584.584,0,0,0-.532.266,1.3,1.3,0,0,0-.168.7Z" fill="#fff"/><path d="M759.09,5224.242v-7.1h1.429v.755a4.34,4.34,0,0,1,.854-.616,2.174,2.174,0,0,1,1.035-.223v1.511a1.158,1.158,0,0,0-.433-.084,1.726,1.726,0,0,0-.484.077,1.286,1.286,0,0,0-.469.259,1.336,1.336,0,0,0-.364.477,1.684,1.684,0,0,0-.139.727v4.214Z" fill="#fff"/><path d="M763.064,5219.524a5.283,5.283,0,0,1,.056-.8,1.9,1.9,0,0,1,.931-1.387,2.474,2.474,0,0,1,2.282,0,1.9,1.9,0,0,1,.931,1.387,5.275,5.275,0,0,1,.056.8v2.338a5.3,5.3,0,0,1-.056.8,1.894,1.894,0,0,1-.931,1.387,2.47,2.47,0,0,1-2.282,0,1.895,1.895,0,0,1-.931-1.387,5.313,5.313,0,0,1-.056-.8Zm1.428,2.562a.862.862,0,0,0,.189.609.744.744,0,0,0,1.022,0,.862.862,0,0,0,.189-.609V5219.3a.866.866,0,0,0-.189-.61.744.744,0,0,0-1.022,0,.865.865,0,0,0-.189.61Z" fill="#fff"/><path d="M771.014,5219.133a.713.713,0,0,0-.232-.547.75.75,0,0,0-.5-.182.64.64,0,0,0-.518.217.751.751,0,0,0-.183.5.826.826,0,0,0,.1.386.911.911,0,0,0,.5.342l.839.336a2.041,2.041,0,0,1,1.1.839,2.323,2.323,0,0,1,.3,1.163,2.151,2.151,0,0,1-.16.834,2.251,2.251,0,0,1-.441.678,1.983,1.983,0,0,1-.673.462,2.147,2.147,0,0,1-.854.168,2.055,2.055,0,0,1-1.456-.546,1.984,1.984,0,0,1-.475-.665,2.374,2.374,0,0,1-.2-.931h1.345a1.34,1.34,0,0,0,.2.546.622.622,0,0,0,.568.252.842.842,0,0,0,.552-.2.693.693,0,0,0,.245-.566.834.834,0,0,0-.153-.5,1.215,1.215,0,0,0-.56-.364l-.686-.252a2.339,2.339,0,0,1-1.058-.748,1.926,1.926,0,0,1-.385-1.211,2.054,2.054,0,0,1,.169-.834,1.986,1.986,0,0,1,.462-.664,1.861,1.861,0,0,1,.657-.428,2.219,2.219,0,0,1,.812-.146,2.051,2.051,0,0,1,.8.154,1.816,1.816,0,0,1,.638.433,2.111,2.111,0,0,1,.42.665,2.2,2.2,0,0,1,.153.82Z" fill="#fff"/><path d="M776.058,5219.133a.714.714,0,0,0-.232-.547.75.75,0,0,0-.5-.182.639.639,0,0,0-.518.217.751.751,0,0,0-.183.5.826.826,0,0,0,.1.386.9.9,0,0,0,.5.342l.84.336a2.041,2.041,0,0,1,1.1.839,2.324,2.324,0,0,1,.3,1.163,2.169,2.169,0,0,1-.16.834,2.25,2.25,0,0,1-.441.678,1.992,1.992,0,0,1-.673.462,2.147,2.147,0,0,1-.854.168,2.055,2.055,0,0,1-1.456-.546,1.984,1.984,0,0,1-.475-.665,2.373,2.373,0,0,1-.2-.931h1.345a1.339,1.339,0,0,0,.2.546.622.622,0,0,0,.568.252.842.842,0,0,0,.552-.2.693.693,0,0,0,.245-.566.834.834,0,0,0-.153-.5,1.215,1.215,0,0,0-.56-.364l-.686-.252a2.339,2.339,0,0,1-1.058-.748,1.926,1.926,0,0,1-.385-1.211,2.054,2.054,0,0,1,.169-.834,1.986,1.986,0,0,1,.462-.664,1.861,1.861,0,0,1,.657-.428,2.219,2.219,0,0,1,.812-.146,2.051,2.051,0,0,1,.8.154,1.816,1.816,0,0,1,.638.433,2.111,2.111,0,0,1,.42.665,2.2,2.2,0,0,1,.153.82Z" fill="#fff"/></g></svg>