<svg xmlns="http://www.w3.org/2000/svg" viewBox="0 0 453.28 25.56"><defs><style>.cls-1{fill:#00803e;}</style></defs><g id="レイヤー_2" data-name="レイヤー 2"><g id="レイヤー_1-2" data-name="レイヤー 1"><path class="cls-1" d="M0,.57v21H28V.57ZM14.44,11.66a.68.68,0,0,1-.44.14.7.7,0,0,1-.44-.14L2.62,3.19H25.38ZM5.2,7.7,9,10.92,2.62,17.19V5.82Zm5.7,4.83.89.76a3.52,3.52,0,0,0,4.42,0l.89-.76,6.52,6.41H4.38ZM19,10.92l6.38-5.1V17.19Z"/><path d="M62.17,13.39c0,4.63-2.57,7.52-6.47,7.52s-6.45-2.81-6.45-7.44S51.85,6,55.72,6,62.17,8.76,62.17,13.39Zm-9.57,0c0,3.3,1,5.12,3.1,5.12s3.12-1.79,3.12-5.12-1-5.1-3.1-5.1S52.6,10.14,52.6,13.42Z"/><path d="M73.74,11.23c-.31-2-1.2-2.88-2.52-2.88-2.11,0-3.2,1.79-3.2,5.07s1.09,5.09,3.2,5.09c1.53,0,2.42-1,2.73-3l3,.84a5.54,5.54,0,0,1-5.85,4.55c-4.06,0-6.47-2.79-6.47-7.44S67.16,6,71.14,6a5.44,5.44,0,0,1,5.77,4.54Z"/><path d="M82.22,14.12c0,2.7,1.22,4.5,3.58,4.5,1.49,0,2.53-.83,3-2.71l3,.86c-.88,2.73-2.83,4.14-6,4.14-4.27,0-6.76-2.74-6.76-7.41S81.64,6,85.49,6c3.64,0,6.37,2.65,6.37,7.48v.68ZM88.66,12c-.15-2.39-1.17-3.74-3.12-3.74S82.42,9.67,82.27,12Z"/><path d="M94.75,9.85c.73-2.57,2.81-3.92,5.9-3.92,3.69,0,5.54,1.56,5.54,4.73v5.67a37.89,37.89,0,0,0,.23,4.21h-3c-.11-.62-.16-1-.24-1.87a5.36,5.36,0,0,1-4.5,2.21,4.06,4.06,0,0,1-4.39-4.24c0-2.5,1.56-4.11,4.65-4.71a27.87,27.87,0,0,1,4.09-.41v-.81c0-1.79-.76-2.52-2.47-2.52a2.71,2.71,0,0,0-2.73,2.5Zm8.27,3.7a14.42,14.42,0,0,0-3.28.41c-1.53.37-2.34,1.15-2.34,2.42a2,2,0,0,0,2.29,2.16A3.9,3.9,0,0,0,103,16.2Z"/><path d="M113.47,8.76A5.8,5.8,0,0,1,118.15,6c2.36,0,4.08,1.53,4.08,4.29V20.54h-3.35V11.16c0-1.64-.71-2.4-2-2.4a4.4,4.4,0,0,0-3.33,2.42v9.36h-3.28V6.27h3.18Z"/><path d="M133.64,13.94h-7.59V11.39h7.59Z"/><path d="M144.75,10.48a2.57,2.57,0,0,0-2.55-2.29c-1.41,0-2.24.68-2.24,1.53,0,1.12.47,1.59,2.55,2.14l1.2.31c3.25.86,4.41,2,4.41,4.34,0,2.55-1.89,4.4-5.77,4.4-3,0-5-1.07-5.95-3.57l3-1.06a3,3,0,0,0,3,2.39c1.87,0,2.6-.81,2.6-1.85s-.49-1.48-2.76-2.13l-1.19-.34c-3.1-.83-4.19-1.95-4.19-4.34s1.87-4,5.36-4c3,0,4.81,1.32,5.59,3.63Z"/><path d="M154.68,8.68A5.79,5.79,0,0,1,159.25,6a3.9,3.9,0,0,1,4.08,4.27V20.54H160V11.18c0-1.66-.7-2.39-2-2.39a4.4,4.4,0,0,0-3.32,2.44v9.31H151.4V0h3.28Z"/><path d="M170.85,3.72h-3.54V.36h3.54Zm-.13,16.82h-3.28V6.27h3.28Z"/><path d="M187,6.92a3.23,3.23,0,0,0-2.55.72,4.16,4.16,0,0,1,1.17,2.86c0,3-2.32,4.71-5.62,4.71a7.68,7.68,0,0,1-1.85-.23c-.62.31-1,.75-1,1.24s.34.89,2,1.05l3.22.26c3.75.36,4.94,1.61,4.94,3.69,0,2.49-2.52,4.34-7.17,4.34-4.14,0-6.42-1.4-6.42-3.46,0-1.25,1-2.21,2.62-2.78-1.3-.29-2-1-2-2.05s.65-2,2.18-3a4.24,4.24,0,0,1-2-3.77C174.44,7.77,176.75,6,180,6a6.67,6.67,0,0,1,3,.67,4.07,4.07,0,0,1,4.13-2.34Zm-8.74,12.79c-1.22.39-1.93,1.07-1.93,1.95,0,1.25,1.56,2,3.93,2,2.78,0,4.16-.89,4.16-1.9s-.47-1.43-2.63-1.67Zm-.83-9.23a2.61,2.61,0,1,0,5.2,0,2.6,2.6,0,1,0-5.2,0Z"/><path d="M189.59,9.85c.73-2.57,2.81-3.92,5.91-3.92,3.69,0,5.53,1.56,5.53,4.73v5.67a37.64,37.64,0,0,0,.24,4.21h-3c-.1-.62-.15-1-.23-1.87a5.37,5.37,0,0,1-4.5,2.21,4.05,4.05,0,0,1-4.39-4.24c0-2.5,1.56-4.11,4.65-4.71a27.73,27.73,0,0,1,4.08-.41v-.81c0-1.79-.75-2.52-2.47-2.52a2.73,2.73,0,0,0-2.73,2.5Zm8.27,3.7a14.32,14.32,0,0,0-3.27.41c-1.54.37-2.34,1.15-2.34,2.42a2,2,0,0,0,2.28,2.16,3.89,3.89,0,0,0,3.33-2.34Z"/><path d="M218.3,11.93a5.36,5.36,0,0,0-.39,1.77,1,1,0,0,0,1,.91c2,0,4.63-2.36,4.63-6.16,0-4.37-3.46-7.28-8.24-7.28a9.42,9.42,0,0,0-9.62,9.72c0,5.28,3.69,8.82,9,8.82,3.93,0,6.5-1.35,8.35-4l1,.75c-2.13,2.89-5,4.45-9.31,4.45-6,0-10.34-4.14-10.34-10A10.82,10.82,0,0,1,215.23,0c5.46,0,9.54,3.61,9.54,8.48,0,4.16-3.12,7.46-6.37,7.46-1.69,0-2.49-.68-2.57-2a4,4,0,0,1-3.36,2,3.35,3.35,0,0,1-3.64-3.64c0-3.9,3-7.41,6.56-7.41a2.1,2.1,0,0,1,2.28,1.87l.52-1.38h2.48Zm-1.12-3.69c0-1.43-.6-2.13-1.61-2.13-1.9,0-4,3.17-4,6.32,0,1.32.57,2.11,1.51,2.11,1.22,0,2.26-.92,2.88-2.74Z"/><path d="M240.24,13.39c0,4.63-2.57,7.52-6.47,7.52s-6.45-2.81-6.45-7.44S229.92,6,233.79,6,240.24,8.76,240.24,13.39Zm-9.57,0c0,3.3,1,5.12,3.1,5.12s3.12-1.79,3.12-5.12-1-5.1-3.1-5.1S230.67,10.14,230.67,13.42Z"/><path d="M251.81,11.23c-.31-2-1.19-2.88-2.52-2.88-2.11,0-3.2,1.79-3.2,5.07s1.09,5.09,3.2,5.09c1.53,0,2.42-1,2.73-3l3,.84a5.54,5.54,0,0,1-5.85,4.55c-4.05,0-6.47-2.79-6.47-7.44S245.23,6,249.21,6A5.44,5.44,0,0,1,255,10.5Z"/><path d="M260.29,14.12c0,2.7,1.22,4.5,3.58,4.5,1.49,0,2.53-.83,3-2.71l3,.86c-.89,2.73-2.84,4.14-6,4.14-4.27,0-6.76-2.74-6.76-7.41S259.71,6,263.56,6c3.64,0,6.37,2.65,6.37,7.48v.68ZM266.74,12c-.16-2.39-1.17-3.74-3.12-3.74S260.5,9.67,260.34,12Z"/><path d="M272.82,9.85c.73-2.57,2.81-3.92,5.9-3.92,3.69,0,5.54,1.56,5.54,4.73v5.67a37.89,37.89,0,0,0,.23,4.21h-3c-.11-.62-.16-1-.24-1.87a5.34,5.34,0,0,1-4.49,2.21,4.06,4.06,0,0,1-4.4-4.24c0-2.5,1.56-4.11,4.65-4.71a27.87,27.87,0,0,1,4.09-.41v-.81c0-1.79-.76-2.52-2.47-2.52a2.72,2.72,0,0,0-2.73,2.5Zm8.27,3.7a14.5,14.5,0,0,0-3.28.41c-1.53.37-2.34,1.15-2.34,2.42a2,2,0,0,0,2.29,2.16,3.89,3.89,0,0,0,3.33-2.34Z"/><path d="M291.54,8.76A5.8,5.8,0,0,1,296.22,6c2.36,0,4.08,1.53,4.08,4.29V20.54H297V11.16c0-1.64-.7-2.4-2-2.4a4.4,4.4,0,0,0-3.33,2.42v9.36h-3.27V6.27h3.17Z"/><path d="M311.71,13.94h-7.59V11.39h7.59Z"/><path d="M327.71,6.92a3.23,3.23,0,0,0-2.55.72,4.16,4.16,0,0,1,1.17,2.86c0,3-2.32,4.71-5.62,4.71a7.68,7.68,0,0,1-1.85-.23c-.62.31-1,.75-1,1.24s.34.89,2,1.05l3.22.26c3.75.36,4.94,1.61,4.94,3.69,0,2.49-2.52,4.34-7.17,4.34-4.14,0-6.42-1.4-6.42-3.46,0-1.25,1-2.21,2.62-2.78-1.3-.29-2-1-2-2.05s.65-2,2.18-3a4.24,4.24,0,0,1-2-3.77c0-2.76,2.31-4.57,5.59-4.57a6.67,6.67,0,0,1,3,.67,4.07,4.07,0,0,1,4.13-2.34ZM319,19.71c-1.22.39-1.93,1.07-1.93,1.95,0,1.25,1.56,2,3.93,2,2.78,0,4.16-.89,4.16-1.9s-.47-1.43-2.63-1.67Zm-.83-9.23a2.61,2.61,0,1,0,5.2,0,2.6,2.6,0,1,0-5.2,0Z"/><path d="M338,9c-1.72,0-3.15,1.12-4.06,3.62v7.9h-3.22V6.27h3.07V9.78C334.8,7,336.28,6,338.21,6Z"/><path d="M353,13.39c0,4.63-2.58,7.52-6.48,7.52s-6.45-2.81-6.45-7.44S342.65,6,346.53,6,353,8.76,353,13.39Zm-9.57,0c0,3.3,1,5.12,3.09,5.12s3.12-1.79,3.12-5.12-1-5.1-3.09-5.1S343.41,10.14,343.41,13.42Z"/><path d="M368.19,20.54H365V18.07a5.45,5.45,0,0,1-4.62,2.84,3.89,3.89,0,0,1-4.14-4.22V6.27h3.36v9.49c0,1.61.72,2.34,2,2.34a4.2,4.2,0,0,0,3.3-2.45V6.27h3.28Z"/><path d="M375.54,8.37a4.74,4.74,0,0,1,4-2.41c3.12,0,5.43,2.46,5.43,7.35s-2.52,7.57-5.59,7.57a4,4,0,0,1-3.74-2.34v7H372.4V6.27h3.14Zm.11,7.59c.65,1.51,1.69,2.4,2.88,2.4,1.72,0,3.1-1.51,3.1-5s-1.28-4.89-2.91-4.89c-1.2,0-2.34.76-3.07,2.42Z"/><path d="M391.72,20.54H388V17h3.72Z"/><path d="M403.81,11.23c-.32-2-1.2-2.88-2.53-2.88-2.1,0-3.19,1.79-3.19,5.07s1.09,5.09,3.19,5.09c1.54,0,2.42-1,2.73-3l3.05.84a5.55,5.55,0,0,1-5.85,4.55c-4.06,0-6.48-2.79-6.48-7.44S397.23,6,401.21,6A5.45,5.45,0,0,1,407,10.5Z"/><path d="M422,13.39c0,4.63-2.58,7.52-6.48,7.52s-6.45-2.81-6.45-7.44S411.68,6,415.56,6,422,8.76,422,13.39Zm-9.57,0c0,3.3,1,5.12,3.09,5.12s3.12-1.79,3.12-5.12-1-5.1-3.09-5.1S412.44,10.14,412.44,13.42Z"/><path d="M428.74,20.54H425V17h3.72Z"/><path d="M436.36,20.91c0,3.17-1.59,4.65-4.61,4.65-.31,0-.59,0-1-.08l-.21-2.34a3.67,3.67,0,0,0,.7.08c1.25,0,1.88-.65,1.88-2.52V6.27h3.25Zm.13-17.19H433V.36h3.51Z"/><path d="M443.84,8.37a4.74,4.74,0,0,1,4-2.41c3.12,0,5.43,2.46,5.43,7.35s-2.52,7.57-5.59,7.57A4,4,0,0,1,444,18.54v7H440.7V6.27h3.14ZM444,16c.65,1.51,1.69,2.4,2.88,2.4,1.72,0,3.1-1.51,3.1-5S448.65,8.5,447,8.5c-1.2,0-2.34.76-3.07,2.42Z"/></g></g></svg>