<svg xmlns="http://www.w3.org/2000/svg" viewBox="0 0 445.23 73.5"><defs><style>.cls-1{fill:#00803e;}.cls-2{font-size:60px;font-family:YuGo-Bold-83pv-RKSJ-H, YuGothic;}</style></defs><g id="レイヤー_2" data-name="レイヤー 2"><g id="レイヤー_1-2" data-name="レイヤー 1"><path class="cls-1" d="M24.7,37.06A1.3,1.3,0,0,0,23,37l-2.44,2a1.28,1.28,0,0,1-1.64,0,32.68,32.68,0,0,1-4.36-3.68,32,32,0,0,1-3.68-4.36,1.28,1.28,0,0,1,0-1.64l2-2.43a1.29,1.29,0,0,0-.09-1.73L8.05,20.41a1.29,1.29,0,0,0-1.75-.07L.46,25.24a1.29,1.29,0,0,0-.31,1.6s.79,1.61,1.52,2.84A57.64,57.64,0,0,0,9.83,39.94,57.7,57.7,0,0,0,20.1,48.1c1.23.73,2.83,1.52,2.83,1.52a1.29,1.29,0,0,0,1.6-.31l4.91-5.84a1.3,1.3,0,0,0-.08-1.75Z"/><path class="cls-1" d="M25.85,30.82l1.94-.31A10.27,10.27,0,0,0,19.26,22L19,23.92a8.31,8.31,0,0,1,6.89,6.9Z"/><path class="cls-1" d="M33.65,16.12A22.55,22.55,0,0,0,21.19,9.77l-.3,1.94A20.68,20.68,0,0,1,38.06,28.89L40,28.58A22.59,22.59,0,0,0,33.65,16.12Z"/><path class="cls-1" d="M20.23,15.87l-.31,1.94a14.46,14.46,0,0,1,12,12l1.94-.31A16.45,16.45,0,0,0,20.23,15.87Z"/><text class="cls-2" transform="translate(49.83 52.8)">077-746-3960</text></g></g></svg>