<svg xmlns="http://www.w3.org/2000/svg" width="560" height="37.26" viewBox="0 0 560 37.26"><g transform="translate(-1184.5 -4700.786)"><path d="M1184.5,4719.462c0-10.228,6.048-17.259,15.98-17.259,9.981,0,16.029,7.13,16.029,17.259,0,10.277-5.851,17.209-16.029,17.209S1184.5,4729.689,1184.5,4719.462Zm6.835,0c0,6.539,2.9,11.457,9.145,11.457s9.194-4.721,9.194-11.457c0-6.589-2.95-11.308-9.194-11.308S1191.335,4712.972,1191.335,4719.462Z" fill="#fff"/><path d="M1235.873,4736.671c-10.276,0-15.39-6.785-15.39-17.209,0-10.767,5.409-17.259,15.98-17.259,4.08,0,7.375.984,9.882,3.05a12.737,12.737,0,0,1,4.033,8.653h-4.13a3.326,3.326,0,0,1-3.2-2.016c-1.131-2.41-3.344-3.639-6.589-3.639-6.344,0-9.145,4.475-9.145,11.211,0,6.539,2.7,11.161,8.948,11.161,4.277,0,6.736-2.359,7.474-6.048h6.638C1249.738,4732.295,1244.33,4736.671,1235.873,4736.671Z" fill="#fff"/><path d="M1327.794,4702.744l12,33.435h-7.227l-2.213-6.835h-12.93l-2.213,6.835h-7.327l11.162-31.222a3.083,3.083,0,0,1,3.246-2.213Zm-8.556,20.947h9.195l-4.622-14.211Z" fill="#fff"/><path d="M1347.6,4702.744h3.688l13.62,22.962v-22.962h6.736v33.435h-7.13l-13.619-22.961v22.961h-6.737v-29.846A3.549,3.549,0,0,1,1347.6,4702.744Z" fill="#fff"/><path d="M1394.491,4726.542a10.5,10.5,0,0,0,1.057,4.008,7.911,7.911,0,0,0,2.213,2.679,8.751,8.751,0,0,0,3.121,1.5,14.8,14.8,0,0,0,3.784.466,12.616,12.616,0,0,0,4.08-.589,7.723,7.723,0,0,0,2.8-1.6,6.271,6.271,0,0,0,1.6-2.334,7.671,7.671,0,0,0,.516-2.8,5.529,5.529,0,0,0-.934-3.343,7.208,7.208,0,0,0-2.433-2.09,15.026,15.026,0,0,0-3.441-1.3q-1.944-.489-3.981-.958t-3.982-1.106a12.524,12.524,0,0,1-3.442-1.72,8.3,8.3,0,0,1-2.433-2.778,8.842,8.842,0,0,1-.934-4.3,8.642,8.642,0,0,1,.763-3.539,8.8,8.8,0,0,1,2.261-3.048,11.1,11.1,0,0,1,3.759-2.114,15.857,15.857,0,0,1,5.212-.785,14.909,14.909,0,0,1,5.234.835,10.4,10.4,0,0,1,3.712,2.286,9.412,9.412,0,0,1,2.212,3.367,11.246,11.246,0,0,1,.737,4.079h-3.194a7.934,7.934,0,0,0-.714-3.49,6.567,6.567,0,0,0-1.941-2.408,8.278,8.278,0,0,0-2.8-1.376,11.929,11.929,0,0,0-3.244-.444,11.422,11.422,0,0,0-4.3.714,7.6,7.6,0,0,0-2.778,1.842,6.244,6.244,0,0,0-1.425,2.509,6.018,6.018,0,0,0-.147,2.752,4.785,4.785,0,0,0,1.376,2.752,8.647,8.647,0,0,0,2.655,1.7,19.84,19.84,0,0,0,3.465,1.082q1.891.417,3.858.885a39.439,39.439,0,0,1,3.812,1.106,11.8,11.8,0,0,1,3.268,1.72,7.956,7.956,0,0,1,2.286,2.778,9.357,9.357,0,0,1,.86,4.251,9.192,9.192,0,0,1-3.392,7.621q-3.391,2.7-9.536,2.7a17.6,17.6,0,0,1-5.113-.713,11.319,11.319,0,0,1-4.08-2.163,9.939,9.939,0,0,1-2.679-3.589,12.234,12.234,0,0,1-.958-5.039Z" fill="#fff"/><path d="M1424.083,4737.111V4701.72h3.343v15.189h20.94V4701.72h3.343v35.391h-3.343v-17.352h-20.94v17.352Z" fill="#fff"/><path d="M1461.783,4737.111V4701.72h3.344v35.391Z" fill="#fff"/><path d="M1490.293,4721.676v-2.851h15.141v18.286h-2.851v-6.045a17.049,17.049,0,0,1-2.14,2.875,11.815,11.815,0,0,1-2.776,2.213,13.449,13.449,0,0,1-3.638,1.4,20.288,20.288,0,0,1-4.67.492,16.029,16.029,0,0,1-6.193-1.18,13.242,13.242,0,0,1-4.916-3.514,16.438,16.438,0,0,1-3.22-5.876,26.657,26.657,0,0,1-1.154-8.257,25.749,25.749,0,0,1,.983-7.251,16.293,16.293,0,0,1,3.022-5.85,14.31,14.31,0,0,1,5.112-3.907,17.082,17.082,0,0,1,7.252-1.425,19.155,19.155,0,0,1,5.235.688,13.818,13.818,0,0,1,4.374,2.088,12.585,12.585,0,0,1,3.27,3.49,14.677,14.677,0,0,1,1.916,4.941H1501.6a10.371,10.371,0,0,0-1.5-3.539,10.16,10.16,0,0,0-2.532-2.63,11.4,11.4,0,0,0-3.294-1.622,12.666,12.666,0,0,0-3.783-.567,13.5,13.5,0,0,0-6,1.23,11.006,11.006,0,0,0-4.129,3.466,15.143,15.143,0,0,0-2.384,5.358,28.856,28.856,0,0,0-.761,6.857,18.1,18.1,0,0,0,.858,5.6,14.223,14.223,0,0,0,2.509,4.67,11.826,11.826,0,0,0,9.462,4.374,14.307,14.307,0,0,0,2.949-.319,11.563,11.563,0,0,0,2.949-1.057,11.366,11.366,0,0,0,2.655-1.918,10.865,10.865,0,0,0,2.114-2.9,12.634,12.634,0,0,0,1.154-3.49,25.548,25.548,0,0,0,.369-3.835Z" fill="#fff"/><path d="M1511.235,4737.111l13.91-35.391h3.786l13.567,35.391h-3.441l-4.08-11.108h-16.124l-4.178,11.108Zm8.748-13.96h13.863l-6.93-18.582Z" fill="#fff"/><path d="M1575.829,4736.179h-15.193v-29.846a3.549,3.549,0,0,1,3.442-3.589h12.292c6.294,0,10.473,2.509,10.473,8.457,0,3.542-1.425,5.655-4.033,6.934,3.3,1.277,5.213,3.441,5.213,7.866C1588.023,4732.933,1583.056,4736.179,1575.829,4736.179Zm-.885-27.633h-7.572v7.18h7.67c2.7,0,4.917-.837,4.917-3.638S1578.041,4708.546,1574.944,4708.546Zm.3,12.833h-7.868v8.752h7.965c3.393,0,5.459-.983,5.459-4.326C1580.8,4722.363,1578.779,4721.379,1575.24,4721.379Z" fill="#fff"/><path d="M1595.588,4702.744h3.392v27.288H1615.3v6.147h-23.158v-29.846A3.549,3.549,0,0,1,1595.588,4702.744Z" fill="#fff"/><path d="M1638.946,4702.744l12,33.435h-7.228l-2.213-6.835h-12.93l-2.213,6.835h-7.326l11.161-31.222a3.083,3.083,0,0,1,3.246-2.213Zm-8.556,20.947h9.195l-4.622-14.211Z" fill="#fff"/><path d="M1667.406,4736.671c-10.277,0-15.391-6.785-15.391-17.209,0-10.767,5.41-17.259,15.98-17.259,4.081,0,7.376.984,9.883,3.05a12.736,12.736,0,0,1,4.033,8.653h-4.131a3.328,3.328,0,0,1-3.2-2.016c-1.13-2.41-3.343-3.639-6.589-3.639-6.343,0-9.145,4.475-9.145,11.211,0,6.539,2.705,11.161,8.949,11.161,4.277,0,6.736-2.359,7.473-6.048h6.639C1681.27,4732.295,1675.863,4736.671,1667.406,4736.671Z" fill="#fff"/><path d="M1689.622,4702.744h3.393v13.767l13.029-13.767h8.653l-13.325,13.571,14.505,19.864h-8.358l-8.457-11.8c-1.475-1.967-2.853-2.754-4.13-2.312a2.473,2.473,0,0,0-1.917,2.41v11.7h-6.835v-29.846A3.548,3.548,0,0,1,1689.622,4702.744Z" fill="#fff"/><path d="M1737.651,4726.886c0-1.622-.984-2.7-3.048-3.294-1.967-.591-4.229-1.18-6.639-1.818-6.539-1.674-9.783-4.721-9.783-9.147.147-7.031,4.326-10.472,12.587-10.424,7.866,0,11.947,3.442,12.341,10.375h-3.835a3.206,3.206,0,0,1-3.049-1.966c-1.13-1.917-3.147-2.853-6.048-2.853-3.539.05-5.31,1.378-5.457,3.934,0,2.114,2.114,3.639,6.49,4.622a77.542,77.542,0,0,1,7.965,2.312q5.607,1.915,5.31,8.259c-.392,6.539-4.818,9.785-13.275,9.785-8.85,0-13.325-3.688-13.521-10.965h6.637c.246,3.541,2.508,5.31,6.884,5.31S1737.7,4729.64,1737.651,4726.886Z" fill="#fff"/><path d="M1302.733,4710.791c-14.463,7.3-19.383-7.191-33.848.109q1.3-2.994,2.591-5.989c14.465-7.3,19.138,8.04,33.6.741C1304.215,4707.647,1303.6,4708.794,1302.733,4710.791Z" fill="#fff"/><path d="M1297.677,4722.344c-14.465,7.3-19.507-6.765-33.971.534q1.3-3,2.589-5.99c14.465-7.3,19.14,8.04,33.6.743C1299.036,4719.626,1298.539,4720.346,1297.677,4722.344Z" fill="#fff"/><path d="M1292.742,4733.471c-14.465,7.3-19.752-5.915-34.217,1.385q1.3-2.994,2.591-5.989c14.465-7.3,19.138,8.04,33.6.741C1293.855,4731.6,1293.606,4731.474,1292.742,4733.471Z" fill="#fff"/></g></svg>