<svg xmlns="http://www.w3.org/2000/svg" width="272.09" height="46.052" viewBox="0 0 272.09 46.052"><g transform="translate(-464.091 -1737.984)"><path d="M470.375,1741.207h8.7l-6.252,42.313h-8.731Z" fill="#00803e"/><path d="M491.31,1756.256l-.536,2.919a33.753,33.753,0,0,1,3.986-2.673,7.07,7.07,0,0,1,3.4-.826,6.4,6.4,0,0,1,5.245,2.466,10.147,10.147,0,0,1,1.986,6.557,12.383,12.383,0,0,1-.162,2.191l-2.484,16.63H494.9l2.384-15.759a15.122,15.122,0,0,0,.129-2.256q0-3.7-2.972-3.706a3.9,3.9,0,0,0-3.151,1.756,9.812,9.812,0,0,0-1.761,4.59l-2.307,15.375h-7.952l4.092-27.264Z" fill="#00803e"/><path d="M526.9,1738.564l-.968,7.6a5.217,5.217,0,0,0-1.87-.386,2.459,2.459,0,0,0-2.548,1.818,58.482,58.482,0,0,0-1.459,8.655h4.267l-1.092,7.864H518.8l-2.774,19.4H508.08l2.829-19.4h-2.12l1.25-7.864h2.114l.471-3.9a29.811,29.811,0,0,1,1.977-8.427,10.918,10.918,0,0,1,3.6-4.27,8.93,8.93,0,0,1,5.289-1.676A13.959,13.959,0,0,1,526.9,1738.564Z" fill="#00803e"/><path d="M552.915,1769.663a13.442,13.442,0,0,1-4.479,10.167,15.251,15.251,0,0,1-10.829,4.206,14.109,14.109,0,0,1-10.086-3.948,12.691,12.691,0,0,1-4.158-9.555,15.2,15.2,0,0,1,14.825-14.857,14.8,14.8,0,0,1,10.618,3.9A13.281,13.281,0,0,1,552.915,1769.663Zm-21.237.515a6.459,6.459,0,0,0,1.853,4.721,6.181,6.181,0,0,0,4.592,1.886,6.1,6.1,0,0,0,4.608-2.063,6.874,6.874,0,0,0,1.934-4.866,6.779,6.779,0,0,0-1.821-4.915,6.273,6.273,0,0,0-4.721-1.885,5.934,5.934,0,0,0-4.56,2.079A7.239,7.239,0,0,0,531.678,1770.178Z" fill="#00803e"/><path d="M575.184,1756.45l-1.9,7.347a6.866,6.866,0,0,0-2.93-.547q-5.444,0-6.506,7.284l-1.95,12.986h-7.886l4.093-27.264h7.885l-.289,1.928a10.461,10.461,0,0,1,6.441-2.572A6.258,6.258,0,0,1,575.184,1756.45Z" fill="#00803e"/><path d="M585.259,1756.256l-.464,3.7q3.932-4.284,8.442-4.284a5.938,5.938,0,0,1,4.285,1.483,9.807,9.807,0,0,1,2.385,4.64q4.347-6.121,9.564-6.123,7.051,0,7.052,9.377a25.536,25.536,0,0,1-.193,3.287l-2.04,15.18h-7.906l2.159-15.565a17.977,17.977,0,0,0,.194-2.45q0-3.77-3.09-3.77a4.614,4.614,0,0,0-3.572,1.789,8.762,8.762,0,0,0-1.963,4.5l-2.382,15.5h-7.846l2.288-15.984a17.367,17.367,0,0,0,.129-1.773q0-4.027-3.028-4.028a4.966,4.966,0,0,0-3.623,1.724,7.733,7.733,0,0,0-2.046,4.367l-2.245,15.694h-7.91l3.9-27.264Z" fill="#00803e"/><path d="M640.535,1759.769l.511-3.513h7.913l-4.028,27.264h-7.848l.412-2.836a13.086,13.086,0,0,1-8.391,3.352,9.433,9.433,0,0,1-7.5-3.513,13.254,13.254,0,0,1-2.985-8.895,17.4,17.4,0,0,1,3.755-11.311,11.344,11.344,0,0,1,9.106-4.641Q636.215,1755.676,640.535,1759.769Zm-13.926,11.15a6.475,6.475,0,0,0,1.479,4.448,5.055,5.055,0,0,0,3.989,1.675,6.43,6.43,0,0,0,4.986-2.32,8.328,8.328,0,0,0,2.059-5.736,6.2,6.2,0,0,0-1.721-4.447,5.612,5.612,0,0,0-4.23-1.8,5.781,5.781,0,0,0-4.7,2.32A9.062,9.062,0,0,0,626.609,1770.919Z" fill="#00803e"/><path d="M656.687,1746.492h7.848l-1.428,9.764h3.666l-1.13,7.864h-3.555l-2.966,19.4h-7.85l2.772-19.4h-2.965l1.134-7.864h3.046Z" fill="#00803e"/><path d="M670.577,1756.256h7.883l-4.094,27.264h-7.818Zm5.543-6.026a4.819,4.819,0,0,1-3.61-1.542,5.105,5.105,0,0,1-1.482-3.662,4.686,4.686,0,0,1,1.5-3.5,5,5,0,0,1,3.594-1.445,4.942,4.942,0,0,1,3.577,1.445,4.711,4.711,0,0,1,1.482,3.5,5.146,5.146,0,0,1-1.434,3.71,4.663,4.663,0,0,1-3.5,1.494Z" fill="#00803e"/><path d="M708.956,1769.663a13.442,13.442,0,0,1-4.479,10.167,15.251,15.251,0,0,1-10.829,4.206,14.109,14.109,0,0,1-10.086-3.948,12.691,12.691,0,0,1-4.158-9.555,15.2,15.2,0,0,1,14.825-14.857,14.8,14.8,0,0,1,10.618,3.9A13.281,13.281,0,0,1,708.956,1769.663Zm-21.237.515a6.459,6.459,0,0,0,1.853,4.721,6.181,6.181,0,0,0,4.592,1.886,6.1,6.1,0,0,0,4.608-2.063,6.874,6.874,0,0,0,1.934-4.866,6.779,6.779,0,0,0-1.821-4.915,6.273,6.273,0,0,0-4.721-1.885,5.934,5.934,0,0,0-4.56,2.079A7.239,7.239,0,0,0,687.719,1770.178Z" fill="#00803e"/><path d="M722.095,1756.256l-.535,2.919a33.67,33.67,0,0,1,3.986-2.673,7.07,7.07,0,0,1,3.4-.826,6.4,6.4,0,0,1,5.244,2.466,10.141,10.141,0,0,1,1.986,6.557,12.494,12.494,0,0,1-.161,2.191l-2.484,16.63h-7.855l2.385-15.759a15.256,15.256,0,0,0,.129-2.256q0-3.7-2.972-3.706a3.9,3.9,0,0,0-3.151,1.756,9.8,9.8,0,0,0-1.761,4.59L718,1783.52h-7.952l4.093-27.264Z" fill="#00803e"/></g></svg>