<svg xmlns="http://www.w3.org/2000/svg" width="280.526" height="42.958" viewBox="0 0 280.526 42.958"><g transform="translate(-459.209 -906.288)"><path d="M465.429,906.288h8.7l-5.051,34.8h13.982l-1.064,7.509H459.209Z" fill="#00803e"/><path d="M508.09,924.851l.512-3.513h7.913L512.486,948.6h-7.848l.412-2.836a13.089,13.089,0,0,1-8.39,3.351,9.434,9.434,0,0,1-7.5-3.513,13.254,13.254,0,0,1-2.985-8.894,17.406,17.406,0,0,1,3.755-11.312,11.346,11.346,0,0,1,9.106-4.64Q503.77,920.758,508.09,924.851ZM494.164,936a6.468,6.468,0,0,0,1.48,4.447,5.052,5.052,0,0,0,3.988,1.676,6.428,6.428,0,0,0,4.986-2.32,8.329,8.329,0,0,0,2.059-5.737,6.2,6.2,0,0,0-1.721-4.447,5.616,5.616,0,0,0-4.23-1.8,5.782,5.782,0,0,0-4.7,2.321A9.061,9.061,0,0,0,494.164,936Z" fill="#00803e"/><path d="M524.242,911.573h7.848l-1.428,9.765h3.667L533.2,929.2h-3.555l-2.966,19.4h-7.849l2.772-19.4h-2.966l1.134-7.863h3.046Z" fill="#00803e"/><path d="M562.085,936.839H543.329q.741,5.9,5.865,5.9a7.39,7.39,0,0,0,6.027-3.319l5.607,2.9q-5.48,6.8-12.665,6.8a12.963,12.963,0,0,1-9.555-3.706,12.8,12.8,0,0,1-3.722-9.474,15.01,15.01,0,0,1,4.238-10.716,13.491,13.491,0,0,1,10.135-4.463,11.891,11.891,0,0,1,9.426,4Q562.181,928.75,562.085,936.839Zm-18.369-5.479h11.15q-.549-4.414-5.317-4.415Q545.456,926.945,543.716,931.36Z" fill="#00803e"/><path d="M581.947,924.722l-4.028,4.092q-2.289-2.127-4.028-2.126a2.837,2.837,0,0,0-1.724.645,1.947,1.947,0,0,0-.854,1.612,3.111,3.111,0,0,0,.884,2.243,13.7,13.7,0,0,0,3.545,2.221,11.1,11.1,0,0,1,3.933,2.93,6.519,6.519,0,0,1,1.273,4.141,8.034,8.034,0,0,1-2.9,6.156,9.923,9.923,0,0,1-6.864,2.61q-5.577,0-8.83-5.478l4.415-3.416q1.934,2.9,4.221,2.9a3.248,3.248,0,0,0,2.1-.7,2.1,2.1,0,0,0,.87-1.7,2.516,2.516,0,0,0-.931-1.907,18.6,18.6,0,0,0-3.484-2.179q-5.028-2.674-5.027-7.379a7.984,7.984,0,0,1,2.707-6.188,9.755,9.755,0,0,1,6.8-2.449Q578.4,920.758,581.947,924.722Z" fill="#00803e"/><path d="M590.061,911.573h7.848l-1.428,9.765h3.666l-1.13,7.863h-3.555L592.5,948.6h-7.85l2.772-19.4h-2.965l1.134-7.863h3.046Z" fill="#00803e"/><path d="M630.818,921.338l-.535,2.918a33.861,33.861,0,0,1,3.986-2.672,7.059,7.059,0,0,1,3.405-.826,6.4,6.4,0,0,1,5.244,2.465,10.143,10.143,0,0,1,1.986,6.557,12.4,12.4,0,0,1-.161,2.192l-2.484,16.63H634.4l2.385-15.759a15.131,15.131,0,0,0,.129-2.256q0-3.7-2.972-3.706a3.9,3.9,0,0,0-3.151,1.756,9.794,9.794,0,0,0-1.761,4.59L626.727,948.6h-7.953l4.093-27.264Z" fill="#00803e"/><path d="M674.654,936.839H655.9q.742,5.9,5.866,5.9a7.389,7.389,0,0,0,6.026-3.319l5.607,2.9q-5.478,6.8-12.665,6.8a12.966,12.966,0,0,1-9.555-3.706,12.8,12.8,0,0,1-3.722-9.474,15.014,15.014,0,0,1,4.238-10.716,13.492,13.492,0,0,1,10.135-4.463,11.89,11.89,0,0,1,9.426,4Q674.751,928.75,674.654,936.839Zm-18.369-5.479h11.151q-.549-4.414-5.318-4.415Q658.026,926.945,656.285,931.36Z" fill="#00803e"/><path d="M676.362,921.338h7.251l3.964,14.921,8.862-14.921H702.5l3.9,14.921,8.766-14.921h7.67L706.849,948.6h-4.415l-4.48-16.758L688.125,948.6h-4.641Z" fill="#00803e"/><path d="M739.735,924.722l-4.028,4.092q-2.289-2.127-4.028-2.126a2.837,2.837,0,0,0-1.724.645,1.947,1.947,0,0,0-.854,1.612,3.112,3.112,0,0,0,.884,2.243,13.7,13.7,0,0,0,3.545,2.221,11.1,11.1,0,0,1,3.933,2.93,6.519,6.519,0,0,1,1.273,4.141,8.03,8.03,0,0,1-2.9,6.156,9.924,9.924,0,0,1-6.864,2.61q-5.577,0-8.83-5.478l4.415-3.416q1.934,2.9,4.221,2.9a3.248,3.248,0,0,0,2.095-.7,2.1,2.1,0,0,0,.87-1.7,2.517,2.517,0,0,0-.931-1.907,18.6,18.6,0,0,0-3.484-2.179Q722.3,934.1,722.3,929.4a7.984,7.984,0,0,1,2.707-6.188,9.757,9.757,0,0,1,6.8-2.449Q736.19,920.758,739.735,924.722Z" fill="#00803e"/></g></svg>